<?xml version="1.0" encoding="utf-8"?>
<!-- Generator: Adobe Illustrator 24.3.0, SVG Export Plug-In . SVG Version: 6.00 Build 0)  -->
<svg version="1.1" id="Layer_1" xmlns="http://www.w3.org/2000/svg" xmlns:xlink="http://www.w3.org/1999/xlink" x="0px" y="0px"
	 viewBox="0 0 938 305" style="enable-background:new 0 0 938 305;" xml:space="preserve">
<style type="text/css">
	.st0{opacity:0.2;}
	.st1{opacity:0.5;fill:#80868B;enable-background:new    ;}
	.st2{opacity:0.6;}
	.st3{fill:#E8EAED;}
	.st4{fill:#BDC1C6;}
	.st5{fill:url(#SVGID_1_);}
	.st6{fill:url(#SVGID_2_);}
	.st7{fill:url(#SVGID_3_);}
	.st8{fill:url(#SVGID_4_);}
	.st9{fill:url(#SVGID_5_);}
	.st10{fill:url(#SVGID_6_);}
	.st11{fill:url(#SVGID_7_);}
	.st12{opacity:0.3;fill:#FFFFFF;enable-background:new    ;}
	.st13{fill:#F8F9FA;}
	.st14{fill:url(#SVGID_8_);}
	.st15{fill:#C5221F;}
	.st16{fill:url(#SVGID_9_);}
	.st17{fill:url(#SVGID_10_);}
	.st18{fill:url(#SVGID_11_);}
	.st19{opacity:0.3;fill:url(#SVGID_12_);enable-background:new    ;}
	.st20{fill:url(#SVGID_13_);}
	.st21{opacity:0.8;fill:#E8EAED;enable-background:new    ;}
	.st22{fill:#DADCE0;}
	.st23{fill:url(#SVGID_14_);}
	.st24{fill:url(#SVGID_15_);}
	.st25{fill:url(#SVGID_16_);}
	.st26{opacity:0.5;fill:#D2E3FC;enable-background:new    ;}
	.st27{fill:#E9F6F8;}
	.st28{fill:#002B6A;}
	.st29{fill:#D4EBF2;}
	.st30{opacity:0.54;fill:#AB476F;enable-background:new    ;}
	.st31{fill:#9ED7E3;}
	.st32{fill:#FFFFFF;}
	.st33{fill:#1D99B3;}
	.st34{fill:url(#SVGID_17_);}
	.st35{fill:url(#SVGID_18_);}
	.st36{fill:url(#SVGID_19_);}
	.st37{fill:#405C96;}
	.st38{fill:url(#SVGID_20_);}
	.st39{fill:url(#SVGID_21_);}
	.st40{fill:url(#SVGID_22_);}
	.st41{fill:url(#SVGID_23_);}
	.st42{fill:#AB476F;}
	.st43{opacity:0.57;fill:#405C96;enable-background:new    ;}
	.st44{fill:url(#SVGID_24_);}
	.st45{fill:url(#SVGID_25_);}
	.st46{fill:url(#SVGID_26_);}
	.st47{fill:#42619B;}
	.st48{opacity:0.8;fill:#FFFFFF;enable-background:new    ;}
	.st49{fill:url(#SVGID_27_);}
	.st50{fill:url(#SVGID_28_);}
	.st51{fill:url(#SVGID_29_);}
	.st52{fill:url(#SVGID_30_);}
	.st53{fill:#D8EEF2;}
	.st54{fill:url(#SVGID_31_);}
	.st55{fill:#FCFCF6;}
	.st56{fill:url(#SVGID_32_);}
	.st57{fill:url(#SVGID_33_);}
	.st58{fill:#C3E6EE;}
	.st59{fill:url(#SVGID_34_);}
	.st60{fill:url(#SVGID_35_);}
	.st61{fill:url(#SVGID_36_);}
	.st62{fill:url(#SVGID_37_);}
</style>
<g>
	<g class="st0">
		<path class="st1" d="M437,171h-55v-65h55V171z"/>
		<g class="st2">
			<path class="st3" d="M749.7,82.7c-9.6,0-17.3,5.6-17.3,12.6v1.5h-44.3c0-8-13.1-14.5-29.1-14.5h-20V90l-49.7,7.5v-9.1
				c0-3.6-4-6.5-8.9-6.5h-8L550,93H385.8V82.2c0-3.1-5.6-5.7-12.3-5.7h-28.3c-6.8,0-12.3,2.6-12.3,5.7V92h-60.8
				c-1.5,0-2.8,1-2.8,2.1v5.4H241v-5.9h-40c-2.8,0-5.1,1.7-5.1,3.7v21l-10.8,0.7c-20.6,0.8-36.4,8.7-36.4,18.3v29.5h636.7V82.6
				l-35.6,0.1H749.7z"/>
			<path class="st3" d="M812,136.6l-42.8-4.2v48h52.5v-38.1C821.7,139.5,817.7,137.1,812,136.6L812,136.6z"/>
		</g>
		<path class="st3" d="M738,142H605v-35c0-2.8,3-5,6.5-5H690l15.7,5.3H738V142z M332.7,103.2V101c0-1.6-1.7-2.9-3.8-2.9h-43v4.8H247
			v55.5l129,0.7v-55.8L332.7,103.2L332.7,103.2z M213.6,105h-21.1c-8.7,1.3-15,7-15,13.8v11.8l-6.5,2.8V154h61v-49H213.6z"/>
		<path class="st4" d="M272,100.6h-6.2c0-5.9-8.2-10.6-18.3-10.6c-10.1,0-18.3,4.7-18.3,10.6H223v9h4.2V138h40.6v-28.3h4.2V100.6z"
			/>
		
			<linearGradient id="SVGID_1_" gradientUnits="userSpaceOnUse" x1="-634.9302" y1="523.437" x2="-634.9302" y2="524.437" gradientTransform="matrix(179 0 0 -56 113894 29488.9922)">
			<stop  offset="0" style="stop-color:#F1F3F4"/>
			<stop  offset="0.15" style="stop-color:#E3E6E8"/>
			<stop  offset="0.44" style="stop-color:#CED1D5"/>
			<stop  offset="0.73" style="stop-color:#C1C5CA"/>
			<stop  offset="1" style="stop-color:#BDC1C6"/>
		</linearGradient>
		<path class="st5" d="M311.4,145.5V136l-106-26L152,136h17.4v11.3h-6.9v4.4H152v5.9h101.2l8.5,8.4h41.2l4.8-8.4H331v-5L311.4,145.5
			L311.4,145.5z M186.2,147.3h-8.4v-9.6c0.1-1.1,1.1-1.9,2.2-1.8h0.1h3.8c1.1-0.2,2.1,0.6,2.3,1.7v0.1L186.2,147.3L186.2,147.3z
			 M203.8,147.3h-8.4v-9.6c0.1-1.1,1.1-1.9,2.2-1.8l0,0h3.9c1.1-0.2,2.1,0.6,2.3,1.7v0.1V147.3z"/>
		
			<linearGradient id="SVGID_2_" gradientUnits="userSpaceOnUse" x1="-636.5577" y1="531.4319" x2="-636.5577" y2="532.433" gradientTransform="matrix(329 0 0 -157 209916 83616)">
			<stop  offset="0" style="stop-color:#F1F3F4"/>
			<stop  offset="0.12" style="stop-color:#E3E6E8"/>
			<stop  offset="0.36" style="stop-color:#CED1D5"/>
			<stop  offset="0.59" style="stop-color:#C1C5CA"/>
			<stop  offset="0.81" style="stop-color:#BDC1C6"/>
			<stop  offset="1" style="stop-color:#DADCE0"/>
		</linearGradient>
		<path class="st6" d="M635.8,127v-9.6h-8V99l-47.3-9.8V72.5L564,69.4l-16.5,3.1V91l-18.9-0.3V43.2l-37-5.4V4.6L467.4,0l-24,4.4
			v33.7L420,41.4v26h-9.5V41.2c0-1.8-2.2-3.1-4.2-2.4L383,47v20.6c-3.2,0.7-5.6,3-5.6,5.8v6.8l-36.6,8.3v34l-16.8,5V157h329v-26.7
			L635.8,127L635.8,127z"/>
		
			<linearGradient id="SVGID_3_" gradientUnits="userSpaceOnUse" x1="-634.1824" y1="342.9886" x2="-634.1824" y2="471.7386" gradientTransform="matrix(148 0 0 -98 94579 51997)">
			<stop  offset="0" style="stop-color:#F1F3F4"/>
			<stop  offset="0.12" style="stop-color:#E3E6E8"/>
			<stop  offset="0.36" style="stop-color:#CED1D5"/>
			<stop  offset="0.59" style="stop-color:#C1C5CA"/>
			<stop  offset="0.81" style="stop-color:#BDC1C6"/>
			<stop  offset="1" style="stop-color:#DADCE0"/>
		</linearGradient>
		<path class="st7" d="M794,117.3c0-3-5.7-5.5-12.6-5.5h-1.8V98.6c0-3.1-5.7-5.6-12.6-5.6h-5.2V68.5l-25-4.5L713,67v24.8l-14.7,4.3
			l-2.8,11l-26.6,1.2v-9.7l-11.4-2l-11.5,2V162h148V117.3L794,117.3z"/>
		<path class="st4" d="M859.7,192.6c-0.1-10.7-6.2-21-16.7-28.2c-7.8-4.5-16.7-6.7-25.7-6.4H684l-1.9-6.8h-15l-1-0.4
			c-2.8-1.1-5.9-1.2-8.8-0.2l-8.2,3h-5.6c-2.1-0.1-3.9,1.4-4.2,3.5v0.8H627v-4c-0.1-1.2-1-2.2-2.3-2.4l-11.8-2.5l-11.6,1.3l0.6,7.6
			H125.3c-9-0.3-17.8,1.9-25.6,6.4l-0.5,0.3c-9.9,6.1-16.1,16.6-16.8,28.2L82,214h778L859.7,192.6z"/>
		
			<linearGradient id="SVGID_4_" gradientUnits="userSpaceOnUse" x1="-631.6275" y1="520.0563" x2="-631.6275" y2="521.0563" gradientTransform="matrix(92.9785 0 0 -43.0068 59445.2891 22544.6309)">
			<stop  offset="0" style="stop-color:#BDC1C6"/>
			<stop  offset="1" style="stop-color:#8C9499"/>
		</linearGradient>
		<path class="st8" d="M764,186l-39.8-21.1c1.1-2.2,0.8-5-0.8-6.9c0,0,3.8-6.8-3.8-11c-7.6-4.4-15,0.3-15,0.3s-8.5-7.4-18-2.8
			c-9.5,4.6-5,14.3-5,14.3c-12.8,8.3-10.4,27.2-10.4,27.2H764z"/>
		
			<linearGradient id="SVGID_5_" gradientUnits="userSpaceOnUse" x1="-633.0847" y1="347.5988" x2="-633.0847" y2="409.6588" gradientTransform="matrix(118 0 0 -68 75514 35951)">
			<stop  offset="0" style="stop-color:#BDC1C6"/>
			<stop  offset="1" style="stop-color:#8C9499"/>
		</linearGradient>
		<path class="st9" d="M869,194.7l-65.8-28v-10.9h3.4v-9.5h-5.5V142l-8.7-0.2L785,128h-12.4l-7.4,13.8l-8.7,0.2v4.3H751v9.5h3.4
			v15.8l31.3,24.4L869,194.7z"/>
		<path class="st4" d="M765,156h26v5h-26V156z M765,164h26v5h-26V164z"/>
		
			<linearGradient id="SVGID_6_" gradientUnits="userSpaceOnUse" x1="-634.3774" y1="360.4366" x2="-634.3774" y2="409.8266" gradientTransform="matrix(155 0 0 -54 98535 28443)">
			<stop  offset="0" style="stop-color:#BDC1C6"/>
			<stop  offset="1" style="stop-color:#8C9499"/>
		</linearGradient>
		<path class="st10" d="M204.8,160v-1.7c0-1.5,2.5-2.7,5.5-2.7h8v-6.8l24-10.8l22.5,10.8v4.3h15.7c2,0,3.5,0.8,3.5,1.7V192H129
			L204.8,160z"/>
		
			<linearGradient id="SVGID_7_" gradientUnits="userSpaceOnUse" x1="-624.1559" y1="512.3389" x2="-623.4418" y2="513.4588" gradientTransform="matrix(44 0 0 -29 27579.998 15010)">
			<stop  offset="0" style="stop-color:#BDC1C6"/>
			<stop  offset="5.000000e-02" style="stop-color:#C1C5C9"/>
			<stop  offset="0.41" style="stop-color:#DBDEE1"/>
			<stop  offset="0.74" style="stop-color:#EBEEEF"/>
			<stop  offset="1" style="stop-color:#F1F3F4"/>
		</linearGradient>
		<path class="st11" d="M137,135.3c-1.5-3-6.1-5.3-11.5-5.3c-2.8,0-5.5,0.6-8,2l-1.6-0.2c-3.6,0-6.6,1.9-6.6,4.2
			c0,0.5,0.2,1,0.4,1.4c-4,1.2-6.7,3.7-6.7,6.6c0,4,5.2,7.3,11.6,7.3c1.9,0,3.7-0.4,5.5-1v8.7h7.3v-5.1l2.6,0.1c9.4,0,17-4.4,17-9.8
			c0-4-4.1-7.4-10-9L137,135.3L137,135.3z"/>
		<path class="st12" d="M421,67.3L288.7,191H162L411.5,59v8.3H421z M529,90.1L670.1,214H787L548,82v8.4L529,90.1z"/>
		<path class="st13" d="M184.4,148.6l1.6-0.6h-8.4l-1.6,0.6H184.4z M174.3,153.7l1.7-0.7h-8.3l-1.7,0.7H174.3z"/>
		
			<linearGradient id="SVGID_8_" gradientUnits="userSpaceOnUse" x1="-608.0714" y1="-157" x2="-608.0714" y2="-156" gradientTransform="matrix(21 0 0 -1 12905 2)">
			<stop  offset="0" style="stop-color:#F8F9FA;stop-opacity:0"/>
			<stop  offset="0.15" style="stop-color:#F8F9FA;stop-opacity:0.2"/>
			<stop  offset="0.32" style="stop-color:#F8F9FA;stop-opacity:0.5"/>
			<stop  offset="0.48" style="stop-color:#F8F9FA;stop-opacity:0.7"/>
			<stop  offset="0.64" style="stop-color:#F8F9FA;stop-opacity:0.8"/>
			<stop  offset="0.78" style="stop-color:#F8F9FA;stop-opacity:0.9"/>
			<stop  offset="0.9" style="stop-color:#F8F9FA"/>
			<stop  offset="1" style="stop-color:#F8F9FA"/>
		</linearGradient>
		<path class="st14" d="M143.1,159l2.9-1h-18.1l-2.9,1H143.1z"/>
		<path class="st15" d="M116.1,159L116.1,159L116.1,159z"/>
		
			<linearGradient id="SVGID_9_" gradientUnits="userSpaceOnUse" x1="-528.4084" y1="421" x2="-510.8085" y2="421" gradientTransform="matrix(19 0 0 -6 11604 2687)">
			<stop  offset="0" style="stop-color:#F8F9FA;stop-opacity:0"/>
			<stop  offset="0.15" style="stop-color:#F8F9FA;stop-opacity:0.2"/>
			<stop  offset="0.32" style="stop-color:#F8F9FA;stop-opacity:0.5"/>
			<stop  offset="0.48" style="stop-color:#F8F9FA;stop-opacity:0.7"/>
			<stop  offset="0.64" style="stop-color:#F8F9FA;stop-opacity:0.8"/>
			<stop  offset="0.78" style="stop-color:#F8F9FA;stop-opacity:0.9"/>
			<stop  offset="0.9" style="stop-color:#F8F9FA"/>
			<stop  offset="1" style="stop-color:#F8F9FA"/>
		</linearGradient>
		<path class="st16" d="M121,158c-2.4,0-4.8,0.2-7.2,0.6c-4.3,0.7-8.2,2.5-11.4,5L102,164c1.9-0.2,3.7-0.6,5.4-1.4
			c3.9-2.5,8.3-4,12.9-4.2L121,158L121,158z"/>
		
			<linearGradient id="SVGID_10_" gradientUnits="userSpaceOnUse" x1="-574.522" y1="43.85" x2="-574.522" y2="45.44" gradientTransform="matrix(9.9877 0 0 -2 5896.1597 539)">
			<stop  offset="0" style="stop-color:#F8F9FA;stop-opacity:0"/>
			<stop  offset="0.15" style="stop-color:#F8F9FA;stop-opacity:0.2"/>
			<stop  offset="0.32" style="stop-color:#F8F9FA;stop-opacity:0.5"/>
			<stop  offset="0.48" style="stop-color:#F8F9FA;stop-opacity:0.7"/>
			<stop  offset="0.64" style="stop-color:#F8F9FA;stop-opacity:0.8"/>
			<stop  offset="0.78" style="stop-color:#F8F9FA;stop-opacity:0.9"/>
			<stop  offset="0.9" style="stop-color:#F8F9FA"/>
			<stop  offset="1" style="stop-color:#F8F9FA"/>
		</linearGradient>
		<path class="st17" d="M154.5,158c-2,1.1-2,2,0.1,2c2.9-0.2,5.7-0.9,8.4-2H154.5z"/>
		<path class="st13" d="M167.6,148.6l1.4-0.6h-6v0.6H167.6z M156.5,153.7l1.5-0.7h-6v0.7H156.5z M202.4,148.6l1.6-0.6h-8.4l-1.6,0.6
			H202.4z M339,160l5-2h-21l-5,2H339z M192.3,153.7l1.7-0.7h-8.3l-1.7,0.7H192.3z"/>
		
			<linearGradient id="SVGID_11_" gradientUnits="userSpaceOnUse" x1="-574.522" y1="43.85" x2="-574.522" y2="45.44" gradientTransform="matrix(9.9877 0 0 -2 5915.1597 539)">
			<stop  offset="0" style="stop-color:#F8F9FA;stop-opacity:0"/>
			<stop  offset="0.15" style="stop-color:#F8F9FA;stop-opacity:0.2"/>
			<stop  offset="0.32" style="stop-color:#F8F9FA;stop-opacity:0.5"/>
			<stop  offset="0.48" style="stop-color:#F8F9FA;stop-opacity:0.7"/>
			<stop  offset="0.64" style="stop-color:#F8F9FA;stop-opacity:0.8"/>
			<stop  offset="0.78" style="stop-color:#F8F9FA;stop-opacity:0.9"/>
			<stop  offset="0.9" style="stop-color:#F8F9FA"/>
			<stop  offset="1" style="stop-color:#F8F9FA"/>
		</linearGradient>
		<path class="st18" d="M173.5,158c-2,1.1-2,2,0.1,2c2.9-0.2,5.7-0.9,8.4-2H173.5z"/>
		
			<linearGradient id="SVGID_12_" gradientUnits="userSpaceOnUse" x1="-634.5355" y1="527.1689" x2="-634.8215" y2="527.741" gradientTransform="matrix(168 0 0 -77.3 106731 40954.8008)">
			<stop  offset="0" style="stop-color:#FFFFFF;stop-opacity:0"/>
			<stop  offset="9.000000e-02" style="stop-color:#FFFFFF;stop-opacity:0.1"/>
			<stop  offset="0.26" style="stop-color:#FFFFFF;stop-opacity:0.2"/>
			<stop  offset="0.5" style="stop-color:#FFFFFF;stop-opacity:0.4"/>
			<stop  offset="0.78" style="stop-color:#FFFFFF;stop-opacity:0.7"/>
			<stop  offset="1" style="stop-color:#FFFFFF"/>
		</linearGradient>
		<path class="st19" d="M178,148v-9.2c0-0.5,0.2-1,0.6-1.1L18,215h29.5L186,148H178z"/>
		
			<linearGradient id="SVGID_13_" gradientUnits="userSpaceOnUse" x1="-617.7" y1="-618.5013" x2="-616.7" y2="-618.5013" gradientTransform="matrix(30 0 0 -0.6 18772 -269.8008)">
			<stop  offset="0" style="stop-color:#F1F3F4;stop-opacity:0"/>
			<stop  offset="0.22" style="stop-color:#F1F3F4;stop-opacity:0.3"/>
			<stop  offset="0.5" style="stop-color:#F1F3F4;stop-opacity:0.6"/>
			<stop  offset="0.73" style="stop-color:#F1F3F4;stop-opacity:0.8"/>
			<stop  offset="0.91" style="stop-color:#F1F3F4;stop-opacity:0.9"/>
			<stop  offset="1" style="stop-color:#F1F3F4"/>
		</linearGradient>
		<path class="st20" d="M271,101.6V101h-30L271,101.6z"/>
		<path class="st21" d="M804,255h-2l3.6,6.8c0.9,1.6-4.6,2.9-12.2,2.9h-5.6l6.6,13l-26.7,2.3l-27.3-1.6l-5.6-13.1L718,263l-5.2-5.7
			l-29-0.7l1.8,5l-12.1,1l-12.8-1l-5.6-18.5l-9.8,0.8l1.2,4.2h-8.6l2.3,8.2l-50,4.5l1.4,7.8l-17.8,1.5l-18.3-1.5l-1.2-8.6l-20.5,0.2
			l2.2,22.6l-41.4,2.7l0.5,17l-27.9,2.4l-27.9-2.4l0.9-17.2l-26-1.6l1-12.6h-10.4l-1.3,12.7c-0.1,1-2.7,1.6-4.9,1.2l-25.7-4.1
			l1.6-10c-3.5-0.3-6-1.4-5.7-2.7l0.5-3.2l-39.1-3.8l3.5-15.3l-17.1-2.2l2-7.5l-14.9,2.3l-1.3,4.5l-48.6,5.3l-3,8.3h4.4l-1.6,4.6
			H247c-1.1,2.9-10.9,5.3-21.8,5.3c-11,0-18.9-2.4-17.6-5.4H201l2-4.5h4.4l1.5-3.4L185,256l-50-12.8h18.2l2.9-5.4H149l1.1-2h-10.9
			l1.6-2.8h104.5l10.1-3.9h42.2l3.9,3.9h17.8l0.4-1.7h331.5V231h152.5l12.2,21.4c0.8,1.5-4.5,2.8-12,2.8L804,255z"/>
		<path class="st22" d="M49,214h848.4c1.5,0,3.3,0.8,3.4,1.6c0.5,2,0.3,5.5-6.1,8.5c-9.8,4.6-23.8,7.7-53.4,7.7
			c-10,0-20-0.5-29.5-1.5l0.6,3.2c0.3,1.7-4,1.7-5.7,0l-4-4.2l-3.3-0.5c-17.8,9-46.4,14.6-81.3,14.6c-4.8,0-9.7-0.1-14.5-0.3
			c-4,4.4-15,8.4-29.5,8.4c-8.6,0.1-17.1-1.1-25.3-3.4c-3,3.5-9.7,4.9-17.6,4.9c-2.5,0-5-0.3-7.3-0.7c-12,7.3-23.4,9.2-42.8,8.2
			c-9-0.3-17.9-2-26.4-5l-2.4,6.2c-0.5,1.1-3.1,1.1-3.8,0l-3.3-5.1l-4.2,10.1c-0.4,1.1-3,1.1-3.8,0l-5-8c-6.7,4.8-20.9,9.3-49.7,9.3
			c-37.1,0-51.6-11.5-51.6-11.5c-4.7,3.6-10.1,6-15.8,7.2c-12.1,2.5-24.6,2.4-36.6-0.3c-5.2-1-10.1-3-14.6-5.8
			c-5.3-3.7-4.5-5.3-4.5-5.3s-5.2,2-16.6,3.2c-9.9,0.9-19.8,1-29.7,0.3c-20-1.3-25-4.8-26-7.1c-7.1,1.8-14.5,2.6-21.8,2.6
			c-6.8,0.1-13.5-0.8-20-2.7c-4,1.2-8.2,1.9-12.3,1.9c-10.7,0-17.8-4.3-17.8-10c-7.3-1.3-14.4-3-21.5-5.1c-21,4.6-37,2.2-45.4-3.9
			c-13.4,2.5-27,3.8-40.7,3.8c-17,0-31.6-2-42.1-5.6l-9,9.3c-1.8,1.9-6.6,1.9-5.8,0l5.7-13.2h-0.2l-7.4,6.7c-2,1.8-6.3,1.8-5.7,0
			L47,221c0.3-0.7,1-1.2,1.6-1.4l-3-3.5c-0.7-0.8,1.3-2.1,3.3-2.1H49z"/>
		
			<radialGradient id="SVGID_14_" cx="-630.3093" cy="527.6175" r="3.315" gradientTransform="matrix(77.9967 0 0 -78.0177 49673.918 41339.5117)" gradientUnits="userSpaceOnUse">
			<stop  offset="0" style="stop-color:#BDC1C6"/>
			<stop  offset="1" style="stop-color:#9DA5AB"/>
		</radialGradient>
		<path class="st23" d="M48.3,215h849.4c0.7,0.1,1.4-0.2,1.8-0.7c0.4-0.5,0.6-1.2,0.5-1.8c-1-3.1-3.9-8.6-12.4-13.2
			c-12.7-7-28.5-11.7-57.2-11.7c-9.3,0-18.5,0.8-27.7,2.2l-1.2-4.6c-0.6-2.6-4.9-2.6-5.5,0l-1.6,6.2l-3,0.7
			c-26-14.6-55.3-21.9-85.1-21.3c-4.6,0-9.2,0.1-13.7,0.4c-8.3-7.9-19.3-12.1-30.7-11.8c-7.9-0.2-15.8,1.4-23,4.7
			c-3.8-5-10.3-6.8-17.7-6.8c-2.3,0-4.6,0.3-6.8,1c-12.7-10-23.7-12.7-41.4-11.3c-8.3,0.4-16.5,2.7-23.8,6.7l-3-8.3
			c-0.5-1-1.8-1.3-2.7-0.8c-0.3,0.2-0.6,0.5-0.8,0.8l-2.5,7l-5-13.7c-0.5-1-1.8-1.3-2.7-0.8c-0.3,0.2-0.6,0.5-0.8,0.8l-3.8,10.6
			c-6.7-6.3-20-12.3-46.4-12.3c-34,0-47.9,15.4-47.9,15.4c-1.2-2-7-7.4-14-9.8c-11.1-3.3-23-3.1-34,0.6c-6.8,2.2-11.3,5-14.2,7.7
			c-5.6,5-5.2,7.3-5.2,7.3s-4.5-2.8-14.9-4.4c-9.2-1.3-18.5-1.4-27.7-0.4c-19,1.8-24.7,6.5-26.3,9.9c-12.7-5-26.8-5-39.5,0
			c-3.4-1.7-7.1-2.6-10.9-2.6c-10,0-18.4,6-20.7,14c-7.8,2-15.5,4.6-23,7.6c-15.2-6.5-32.7-4.3-45.8,5.7c-12-3.8-24.5-5.7-37-5.6
			c-15.3-0.1-30.4,2.7-44.5,8.4l-2.5-13.6c-0.5-2.8-5-2.8-5.6,0l-3.5,19.5H64l-2.5-10.1c-0.7-2.5-5-2.5-5.6,0l-4.3,17.3
			c-0.2,0.8,0,1.6,0.6,2.1l-5.6,5.6C45.3,213,46.3,215,48.3,215L48.3,215z"/>
		
			<linearGradient id="SVGID_15_" gradientUnits="userSpaceOnUse" x1="81.5029" y1="275.1704" x2="58.7829" y2="283.2724" gradientTransform="matrix(16.0255 0 0 -37 10432.2842 19306)">
			<stop  offset="0" style="stop-color:#BDC1C6"/>
			<stop  offset="5.000000e-02" style="stop-color:#C1C5C9"/>
			<stop  offset="0.41" style="stop-color:#DBDEE1"/>
			<stop  offset="0.74" style="stop-color:#EBEEEF"/>
			<stop  offset="1" style="stop-color:#F1F3F4"/>
		</linearGradient>
		<path class="st24" d="M836.8,132.2l-5.8,32.2c0,0.6,0,1.3,0.5,1.8c0.4,0.5,1,0.8,1.7,0.8h11.6c0.6,0,1.3-0.3,1.7-0.8
			s0.6-1.2,0.5-1.8l-5.8-32.2c0-1.2-1-2.2-2.2-2.2S836.8,131,836.8,132.2z"/>
		
			<linearGradient id="SVGID_16_" gradientUnits="userSpaceOnUse" x1="16.0984" y1="171.8887" x2="-3.5116" y2="182.5818" gradientTransform="matrix(11.9739 0 0 -18.8865 7835.3394 9595.1836)">
			<stop  offset="0" style="stop-color:#BDC1C6"/>
			<stop  offset="5.000000e-02" style="stop-color:#C1C5C9"/>
			<stop  offset="0.41" style="stop-color:#DBDEE1"/>
			<stop  offset="0.74" style="stop-color:#EBEEEF"/>
			<stop  offset="1" style="stop-color:#F1F3F4"/>
		</linearGradient>
		<path class="st25" d="M826.5,148l-3.4,13.7c-0.2,0.8,0,1.6,0.4,2.3c0.5,0.6,1.3,1,2,1h7c0.7,0,1.5-0.4,2-1s0.6-1.5,0.4-2.3
			l-3.4-13.7c-0.4-1.4-1.8-2.2-3.2-1.8C827.4,146.5,826.7,147.1,826.5,148z"/>
	</g>
	<path class="st26" d="M102.7,213c0-0.7-0.4-1.2-1-1.4c-1,0-1.8,0.6-2.4,1.4c0.1,0.8,0.9,1.4,1.7,1.3
		C101.9,214.4,102.6,213.8,102.7,213L102.7,213z"/>
	<g>
		<g>
			<path class="st27" d="M863.8,189.2c0,0,6.2,5.5,6.5,5.5c0.9,0.1,1.6,1,3.5,1.6c0,0.1-0.4,0.5-1,0.2c-0.7-0.3-1,0.3-1,0.3
				s0,0.3-0.3,0.6c-0.3,0.2-0.3,0.7-0.4,0.6c-0.6-0.5-1.5-1.3-1.7-1.5c-0.3-0.4-0.4-0.8-0.4-0.8l-6.5-4.7L863.8,189.2z"/>
			<path class="st28" d="M858.1,183.1l6,6.2l-1.5,1.7c0,0-3.8-2.4-6.3-5.1C857.2,184.7,858.1,183.1,858.1,183.1z"/>
			<g>
				<g>
					<path class="st28" d="M869.1,200.6c-0.2,0.3-0.5,0.3-0.8,0.1l-6.4-4.4c-0.3-0.2-0.3-0.5-0.1-0.8l6.2-9c0.2-0.3,0.5-0.3,0.8-0.1
						l6.4,4.4c0.3,0.2,0.3,0.5,0.1,0.8L869.1,200.6z"/>
					
						<rect x="863.5" y="189.7" transform="matrix(0.5693 -0.8221 0.8221 0.5693 214.9008 797.366)" class="st29" width="9.9" height="7.7"/>
				</g>
				<g>
					<g>
						<path class="st30" d="M866.4,192.2l2.2,1.2l-0.9-2.3C867.1,191.3,866.7,191.7,866.4,192.2z"/>
						<path class="st31" d="M868.6,193.6l-2.3-1.3c-0.7,1.3-0.2,2.9,1.1,3.7L868.6,193.6z"/>
						<path class="st32" d="M868.8,193.5l2.2-1.5c-0.2-0.3-0.5-0.6-0.9-0.8c-0.7-0.4-1.5-0.4-2.3-0.1L868.8,193.5z"/>
						<path class="st33" d="M868.8,193.7l-1.3,2.4c1.3,0.7,2.9,0.1,3.6-1.2c0.5-0.9,0.4-2-0.1-2.8L868.8,193.7z"/>
					</g>
				</g>
			</g>
			<path class="st27" d="M871,197.9c0,0,0.2,0.3,0.4,0.3c0.5,0,0.4-0.4,0.4-0.4s0.3,0,0.4-0.2c0.2-0.3,0-0.5,0-0.5s0.2,0,0.3-0.1
				c0.2-0.2,0-0.4-0.1-0.5s-0.7-0.4-1.3-0.8c-0.2-0.1-0.3,0.2-0.2,0.3c-0.1,0-0.2-0.1-0.3,0.1c-0.1,0.2,0,0.4,0,0.4
				s-0.2-0.1-0.3,0.1C870.2,196.8,870.9,197.8,871,197.9L871,197.9z"/>
		</g>
		<path class="st28" d="M856.5,161.6c0,0,3-1.7,3.4,1.7c0.4,3.9-3.8,6.6-3.8,6.6L856.5,161.6z"/>
		
			<linearGradient id="SVGID_17_" gradientUnits="userSpaceOnUse" x1="2036.3926" y1="700.309" x2="2036.3926" y2="720.0306" gradientTransform="matrix(1 0 0 1 -1183.6387 -462)">
			<stop  offset="0" style="stop-color:#88B9C5"/>
			<stop  offset="1" style="stop-color:#FFFCFF;stop-opacity:0"/>
		</linearGradient>
		<path class="st34" d="M852.2,261.8l-5.7-16.3l0.5-3.1c0.3-0.3,1-0.7,1.1-0.8c0.2-0.2,0-0.5,0-0.5s-1.4,0.3-1.8,0.4
			c-0.3,0.1-0.7,2-0.7,2l-0.5-1.9l-0.4,0.1c0,0,0.2,1.5,0.3,2.4c0.1,0.5,0.3,0.9,0.3,0.9l0,0l0.4,0.7c0,0,0.1,9.5,1.9,15.9h4.6
			L852.2,261.8L852.2,261.8z M859.2,261.8l-1.3-16.4l1.3-2.6c0,0,0,0,0.1,0c0.3-0.2,1.2-0.6,1.3-0.6c0.4-0.1,0.1-0.5,0.1-0.5
			s-1.6,0-2,0s-0.9,1.2-0.9,1.2l-0.3-1.2h-0.3c0,0-0.2,1.2-0.3,2.1c-0.1,0.5,0,0.9,0,0.9l0,0l0.2,0.8c0,0-2.8,9.5-2.3,16.2h4.4
			V261.8z"/>
		
			<linearGradient id="SVGID_18_" gradientUnits="userSpaceOnUse" x1="855.5957" y1="653.4714" x2="855.3061" y2="681.2706" gradientTransform="matrix(1 0 0 1 0 -462)">
			<stop  offset="0" style="stop-color:#56B9CE"/>
			<stop  offset="0.5583" style="stop-color:#A0D8E3"/>
			<stop  offset="1" style="stop-color:#DAF0F4"/>
		</linearGradient>
		<path class="st35" d="M859.4,241l-1.4-2.7l1.6-20.6c0,0,0.6-11.3,0.1-16.5c-0.1-1.6-0.8-4.1-0.8-4.1s-9.3,3-7.7,5.4
			c2.4,3.5,3.3,7.3,4.7,12.7c-3.3,3.6,0.9,17.9,1.1,22.8c-0.2,0.5-0.3,0.8-0.3,0.8l1,1.4l1,1.1L859.4,241z"/>
		<path class="st27" d="M847.1,240.4l-0.7-2.9l7.3-19.5c0,0,3.6-10.6,4.5-15.9c0.3-1.6,0.7-5.3,0.7-5.3s-9.7-4-9.7,2.1
			c0,4.2,1.8,11.2,1.3,16.1c-3.9,1.9-3.6,15.2-4.8,21.8c-0.2,0.2-0.4,0.8-0.4,0.8l0.6,1.6l0.7,1.3L847.1,240.4z"/>
		<path class="st28" d="M859.3,240.9c0.3,0.2,1.1,0.5,1.2,0.6c0.3,0.2,0.2,0.3,0.2,0.3s-1.6,0-2,0s-1.2-1.8-1.2-1.8l-0.1,1.8h-0.3
			c0,0-0.1-1.2-0.3-2.1c-0.1-0.5,0-0.9,0-0.9s0.5-0.1,1.1,1C858.6,240.8,859,240.9,859.3,240.9z"/>
		<path class="st28" d="M847,240c0.3,0.3,0.9,1,1,1c0.2,0.1,0,0.4,0,0.4s-1.5-0.5-1.8-0.6s-0.6-2.1-0.6-2.1l-0.5,1.7l-0.4-0.1
			c0,0,0.2-1.2,0.3-2.1c0.1-0.5,0.3-0.9,0.3-0.9s0.4,0.1,0.8,1.3C846.5,240,846.7,239.9,847,240z"/>
		<path class="st28" d="M855.2,191.4c0,0,4.1,0.3,6.1-2.9c0.1-6.6,0.8-11.4-1.2-13.9c-1.6-2-5.4-2.3-5.4-2.3L855.2,191.4z"/>
		<path class="st31" d="M857.4,175.1c0,0-1-1.2-3.6-2.9c0.1-0.1,0.6-0.6,1-0.7C857.6,173,857.4,175.1,857.4,175.1z"/>
		<path class="st32" d="M860.1,192.5c0,0,0-7,0.4-9.9c2.8-3.5-3.2-7.7-7.3-11.5c-0.3,0.3-1,1-2.1,2.2c-2.8,3,2,2.6-1,7.5
			c2,7.3,1.6,11.8,1.6,11.8L860.1,192.5z"/>
		<path class="st31" d="M859.2,193.1c0,0-0.3-4.8,0.3-8.2c0.6-3.5-0.7-5.1-0.7-5.1s0.5,1.1,0.3,4.9c-0.2,4-0.8,8.8-0.8,8.8
			L859.2,193.1z"/>
		<path class="st28" d="M852.5,171.7c-0.6,0.1-1.3,0.4-2.4,0.5c-2.9,0.5-2.4,3.3-3.5,7.4c-0.1,0.2-0.4,1.4-0.5,1.6
			c-1,3,2.4,4,3.6,1.7c0.2-0.4,3.5-7.2,3.5-7.2S852.8,172.1,852.5,171.7z"/>
		<path class="st28" d="M851.5,191.8c-0.2-10.3-3.1-12.5-3.5-13c3.5-1.8,3.7-5,4.3-7.2c4.8,4.4,5.8,3.7,5.9,18
			C853.9,192.4,851.8,191.7,851.5,191.8z"/>
		<path class="st28" d="M851.7,192.2c-6,6,0.4,11.3-3.6,21.6c4.5,1.1,4.1,1.1,12.4,0.5c0-5.3-0.5-21.8-0.5-21.8
			S858.5,192.4,851.7,192.2z"/>
		
			<linearGradient id="SVGID_19_" gradientUnits="userSpaceOnUse" x1="-2191.8821" y1="587.6813" x2="-2183.7244" y2="586.1741" gradientTransform="matrix(-0.9989 -4.660000e-02 -4.660000e-02 0.9989 -1299.9329 -518.6388)">
			<stop  offset="0" style="stop-color:#56B1CE"/>
			<stop  offset="1" style="stop-color:#E9F6F8"/>
		</linearGradient>
		<path class="st36" d="M852.5,171.6c0.9-1.4,0.3-3.4,0.3-3.6l2.6-4c0,0,1,1.2,1,3.6c0,0.7,1,1.2,1.6,1.3c1.1,0.2,1.4,0.4,1.6,0.5
			c-2,0.2-2.2,0.8-4.3,4.5C854.1,172.9,853.4,172.1,852.5,171.6z"/>
		<path class="st27" d="M859.3,169.4c-0.8,0-1.5,0-2.1-0.4c-0.8-0.5-1.2-2.3-1.2-2.3s-0.7-0.4-0.7-0.9c0-0.6-0.2-0.8,0.8-1.1
			c1.4-0.5,0.1-2.2,0.1-2.2l0.9-0.7c0,0,0.5-0.2,0.9,0.3s1.2,1.4,1.4,3c0.6,0.8,1,1.4,1,1.4s0,0.2-0.2,0.2s-0.3,0.2-0.3,0.2
			s0,0.3,0.2,0.5c0,0.1-0.1,0.2-0.2,0.3c0.1,0.1,0.1,0.2,0.1,0.3c-0.4,0.4,0.2,1-0.1,1.4C859.8,169.4,859.7,169.4,859.3,169.4z"/>
		<path class="st28" d="M859.1,165.4c0,0.1,0,0.1-0.2,0.1s-0.5,0-0.8,0c-0.1,0,0.3-0.1,0.9-0.5c0.2-0.1,0.1,0,0,0.1
			C859.1,165.2,859.1,165.3,859.1,165.4z"/>
		<path class="st31" d="M852.1,171.8c0,0,0.6,0.9,0.8,2.5c0.9-0.3,1.8-0.3,1.8-0.3s0,0.5-0.6,1.8c0.8,0.2,3.6,2.1,4.6,3.5
			c-1.2-3.2-3.3-6.2-6.2-8C852.2,171.7,852.1,171.8,852.1,171.8z"/>
		<path class="st28" d="M850.8,170.9c-1.3-1.9-0.3-7.7,1.8-9.3c2.6-2,5.9-0.5,5.7,0.8c-0.2,0-1.7,0.1-1.4,1.5
			c0.2,0.8,0.2,1.3-0.5,1.8c-0.8,0.5-0.9,1.7-0.3,2.7c0.6,1.1-1.3,1.6,0.3,3.4C855.1,172.8,852.3,173,850.8,170.9z"/>
		<polygon class="st28" points="856.2,168.5 856.4,168.5 856.2,166.8 854.7,166.2 854.4,166.2 		"/>
		<polygon class="st37" points="856,166.9 856.2,168.5 854.1,167.4 853.9,166 		"/>
		<path class="st27" d="M855.6,168.2c-0.1-0.1-0.4-0.2-0.6-0.3c-0.4-0.1-0.7,0.1-0.9,0.1s-0.7-0.5-0.7-0.7s0.5-0.1,0.5-0.1
			s0.8,0.2,0.9,0.2c0.2,0,0.3-0.2,0.3-0.2l-1.1-0.4c0,0,1.1-0.1,1.3-0.1s0.2-0.3,0.2-0.3l-0.3-0.1l0.1-0.1l-1.4-0.3l-1,0.6
			c0,0-0.6,0.1-0.7,0.5c-0.1,0.5-0.4,1.4-0.4,1.5c0,0-0.2,0.4-0.3,0.7c-0.9,1.8-4.5,9.4-5.2,10.5c-1.6,2.7,0.4,3.7,0.4,3.7
			s1.6,1,2.5-1.7c0.5-1.5,3-11,3.4-12.4c0.1,0,0.5-0.1,1-0.4c0.6-0.4,1-0.6,1.4-0.7C855.3,168.2,855.6,168.2,855.6,168.2
			C855.7,168.3,855.7,168.2,855.6,168.2z"/>
	</g>
	<g>
		<g>
			
				<linearGradient id="SVGID_20_" gradientUnits="userSpaceOnUse" x1="743.9827" y1="722.4693" x2="743.9827" y2="708.1689" gradientTransform="matrix(1 0 0 1 0 -462)">
				<stop  offset="0" style="stop-color:#FFFFFF;stop-opacity:0"/>
				<stop  offset="1" style="stop-color:#91D1DF"/>
			</linearGradient>
			<path class="st38" d="M740.4,262.3h6.1l-1.4-14.1c0,0-0.1,0-0.4-0.1l1-0.6c0,0,1.6-0.5,1.7-0.5c0.3-0.1,0.1-0.4,0.1-0.4h-1.7
				l-1.8,0.6v-0.5l-1.3-0.1l0.1,1.2c-0.3,0-0.6,0-0.9,0C741.8,253.2,740.7,257.9,740.4,262.3z"/>
			
				<linearGradient id="SVGID_21_" gradientUnits="userSpaceOnUse" x1="731.7" y1="722.4663" x2="731.7" y2="708.1429" gradientTransform="matrix(1 0 0 1 0 -462)">
				<stop  offset="0" style="stop-color:#FFFFFF;stop-opacity:0"/>
				<stop  offset="1" style="stop-color:#91D1DF"/>
			</linearGradient>
			<path class="st39" d="M729.2,262.3h6.1l-4.3-14.4c0,0-0.2,0-0.4,0l0.7-0.5c0,0,1.6-0.5,1.7-0.5c0.3-0.1,0.1-0.4,0.1-0.4h-1.7
				l-1.8,0.6v-0.5l-1.3-0.1l0.1,1.5c-0.1,0-0.2,0-0.3,0C728.4,252.7,728.6,257.9,729.2,262.3z"/>
		</g>
		<path class="st27" d="M765.7,163.6c0,0,0.2-0.4,0.1-0.7c0-0.3-1.1-2.9-1.1-2.9s0.6-0.1,0.8,0.6c0.1,0.4,0.5,0.6,0.5,0.6l0.5-1.4
			c0,0,1.6,0.3,1.6,0.4c0,0.2,0,0.3,0,0.3s0,0.6-0.2,1.2c-0.2,0.6-0.8,1.4-0.8,1.4v0.8L765.7,163.6z"/>
		<path class="st28" d="M746.1,164.6c0,0,4.8-0.8,8.6,4.1c2.3,3,8.6,5.9,8.6,5.9l2.2-11.5l1.8,0.3c0,0,0.1,7.7,0.1,12.7
			c-0.1,3.8-4.5,2.9-4.5,2.9l-13-4.3L746.1,164.6z"/>
		<g>
			<polygon class="st28" points="762.6,159.3 774.3,161.1 774.3,155.8 762.6,157.6 			"/>
			<path class="st28" d="M755,157.6c-0.1,0-0.3,0-0.3,0c-0.2,0-0.4,0.4-0.4,0.9s0.2,0.9,0.4,0.9c0.1,0,0.3,0,0.3,0
				c0.2,0,0.4-0.4,0.4-0.9S755.2,157.6,755,157.6z"/>
			<polygon class="st28" points="754.9,159 770.9,161.2 770.9,155.3 754.9,157.9 			"/>
			<path class="st28" d="M771.8,154.6c-0.2,0-1.1,0-1.3,0c-0.8,0-1.5,1.7-1.5,3.8s0.7,3.8,1.5,3.8c0.2,0,1.1,0,1.3,0
				c0.8,0,1.5-1.7,1.5-3.8S772.6,154.6,771.8,154.6z"/>
			<path class="st28" d="M775.9,155.2c-0.2,0-0.9,0-1.1,0c-0.7,0-1.2,1.4-1.2,3.1c0,1.7,0.5,3.1,1.2,3.1c0.2,0,0.9,0,1.1,0
				c0.7,0,1.2-1.4,1.2-3.1C777.1,156.6,776.5,155.2,775.9,155.2z"/>
			
				<linearGradient id="SVGID_22_" gradientUnits="userSpaceOnUse" x1="775.4096" y1="618.1444" x2="775.4096" y2="623.0368" gradientTransform="matrix(1 0 0 1 0 -462)">
				<stop  offset="0" style="stop-color:#56B9CE"/>
				<stop  offset="0.5583" style="stop-color:#A0D8E3"/>
				<stop  offset="1" style="stop-color:#DAF0F4"/>
			</linearGradient>
			<path class="st40" d="M775.4,155.7c-0.4,0.4-0.7,1.4-0.7,2.6c0,1.2,0.3,2.2,0.7,2.6c0.4-0.4,0.7-1.4,0.7-2.6
				C776.2,157.1,775.9,156.1,775.4,155.7z"/>
			
				<linearGradient id="SVGID_23_" gradientUnits="userSpaceOnUse" x1="771.4501" y1="618.1444" x2="771.4501" y2="623.0367" gradientTransform="matrix(1 0 0 1 0 -462)">
				<stop  offset="0" style="stop-color:#56B9CE"/>
				<stop  offset="0.5583" style="stop-color:#A0D8E3"/>
				<stop  offset="1" style="stop-color:#DAF0F4"/>
			</linearGradient>
			<path class="st41" d="M771.4,155.3c-0.5,0.5-0.8,1.7-0.8,3.1c0,1.5,0.4,2.7,0.9,3.1c0.5-0.5,0.8-1.7,0.8-3.1
				C772.3,157,771.9,155.8,771.4,155.3z"/>
		</g>
		<path class="st37" d="M730,201.5c0,0,5.1-1.9,13.9-2.3c8.2-0.4,8.4-19.4,8.4-19.4S736.7,191,732,196.7
			C730.7,198.3,730,201.5,730,201.5z"/>
		<path class="st28" d="M728.4,245.1l-0.1,1.5h1.3v-0.5l1.8,0.6h1.7c0,0,0.2-0.3-0.1-0.4c-0.1,0-1.7-0.5-1.7-0.5l-1.5-1L728.4,245.1
			z"/>
		<path class="st28" d="M742.8,245.1l-0.1,1.5h1.3v-0.5l1.8,0.6h1.7c0,0,0.2-0.3-0.1-0.4c-0.1,0-1.7-0.5-1.7-0.5l-1.5-1L742.8,245.1
			z"/>
		<path class="st28" d="M747.4,192.7c0,0,7.6-5.3,8.1-15.2c0.4-7.7-6-12.6-6-12.6L747.4,192.7z"/>
		<path class="st32" d="M750.1,198.3c0,0,1.1-8,2.9-17.6c1.5-7.9-3.4-16.9-3.4-16.9l-4.1,0.6c0,0-7.7,6.1-9.6,13.6
			c-1.2,4.6-1.6,10.1-1.6,10.1l-0.1,10.1L750.1,198.3z"/>
		<path class="st31" d="M747.1,198.7c0,0-0.5-4.9,1.4-7.8c2.1-3.1,2.3-9.4,2.3-9.4s-0.8,5.2-2.5,9s-2.1,8.2-2.1,8.2H747.1z"/>
		<path class="st31" d="M745.5,164.4l-0.4,0.3l2.8,3.7c0,0,1.6-0.6,2.3-2C747.2,166.2,745.5,164.4,745.5,164.4z"/>
		<path class="st28" d="M745.1,164.7c0,0-4.1,1.5-10.1,3.7c-0.7,0.3-1.3,0.7-1.7,1.4c-0.9,4.7,2.9,10,0.4,15c0.1,1,0.1,3.7,0.1,6.1
			c-0.6,0.7-2.5,3-3.1,3.7c-4.2,4.9-1,8.9-1,8.9s4.2-6.8,13.7-16.4C753.1,177.2,745.1,164.7,745.1,164.7z"/>
		<path class="st31" d="M749.2,186c0,0-1.3,4.1-2.7,6.6c-1.4,2.6-2.7,4.1-2.7,4.1s-1.9-0.1-2.8,0.1c-0.9,0.2-2.2,0.5-2.2,0.5
			s0.7-3.3,1.2-4.2s1.5-1.7,1.5-1.7l3-2.8L749.2,186z"/>
		<path class="st42" d="M750.3,166.6c0,0,0.4,0.3,0.7,1.3c0,0.6-0.3,1.1-0.3,1.1s1.8,3.7,1.5,8.7c-0.5,7.7-7.8,16.9-7.8,16.9
			l-3.9,0.8l0.3-3.9c0,0,8-6.9,9.4-14.3c0.9-5.2-0.1-8.1-0.1-8.1s-0.3-0.2-1-0.9C749.9,167.6,750.3,166.6,750.3,166.6z"/>
		<path class="st43" d="M745.6,169c0.1,0.6,0.1,1.8-0.4,2.6c0.9,0.7,1.8,1.2,1.8,1.2s-0.5,0.7-1.6,1.8c0.7,1.5,1,5.8-0.1,9
			c3.9-5.3,2.5-11,1.8-13.4c-0.7-2.5-1.3-3.4-1.3-3.4S745.4,168,745.6,169z"/>
		<path class="st28" d="M745.1,245.1c0,0-1.3,0.5-3.2,0.5c-0.2-9.2-3-16.3-0.6-23.6c-0.4-11.7-3.6-23.8-3.6-23.8l12.4,0.2
			L745.1,245.1z"/>
		<path class="st37" d="M740.6,212.3l0.3,2.7c0,0,1.8-5,1.8-8C742.7,202.8,740.6,212.3,740.6,212.3z"/>
		<g>
			<path class="st27" d="M725.7,200.3c0,0,0.5,0.8,0.6,1c0.2,0.5-0.2,2.2,0,3.5c0,0.1-0.5,0-0.5-0.4c0-0.5-0.3-1-0.3-1L725,204
				c0,0,0.6-0.2,0.6,0.2c-0.1,0.1-0.7,0.4-1,0.5c-0.2,0.1-0.4,0-0.5-0.1c0-0.1-0.1-0.2-0.2-0.2c-0.2-0.1-0.3-0.2-0.3-0.4
				c0-0.1-0.1-0.2-0.2-0.3c-0.2-0.2-0.1-0.3-0.1-0.3s0.3-0.7,0.6-1.1c0.4-0.6,1.1-1.3,1.1-1.3l0.2-0.7L725.7,200.3L725.7,200.3z"/>
			<path class="st28" d="M725,200.7l1.6,0.6c0,0,3.8-11.6,12.5-26.7c-1.2-2.6-2-4.6-5.9-4.8C727.4,182.9,725,200.7,725,200.7z"/>
		</g>
		<path class="st28" d="M745.5,198.2L731,245.4c0,0-2.1-0.1-2.9-0.2c0.5-8.6,1-19.3,3.8-23.5c2.2-17.8,0.1-17.5,2.2-23.7
			C739.9,198.3,745.5,198.2,745.5,198.2z"/>
		<g>
			<g>
				
					<linearGradient id="SVGID_24_" gradientUnits="userSpaceOnUse" x1="829.3701" y1="1077.2325" x2="823.9853" y2="1074.2708" gradientTransform="matrix(0.9998 1.470000e-02 -1.470000e-02 0.9998 -60.4951 -923.8832)">
					<stop  offset="0" style="stop-color:#56B9CE"/>
					<stop  offset="0.5583" style="stop-color:#A0D8E3"/>
					<stop  offset="1" style="stop-color:#DAF0F4"/>
				</linearGradient>
				<path class="st44" d="M745.5,164.3c0,0,0.6-1.1,0.5-3.2c-0.1-2.1,2.2-1.9,2.2-1.9s0.9,1.8,1.2,2.9c0.2,1,1.3,1.7,1.7,1.7
					c1,0.1,2.7,0.1,2.7,0.1s-2.8,0.6-3.6,2.4C747.8,166.6,745.5,164.3,745.5,164.3z"/>
				<path class="st27" d="M753.7,164c-0.9,0-1.9,0-2.6-0.1c-1.1-0.1-1.6-1.2-1.6-1.2l-0.6-1.8c0,0-0.4-0.2-0.7-0.6
					c-0.1-0.2-0.4-1,0.4-1.4c1.2-0.5,0.2-3.4,0.2-3.4l1.7-0.5l1.5,0.8l2.7,4.2c0,0,0,0.2-0.3,0.3c-0.4,0.1-0.7,0.2-0.7,0.2
					s0.5,3,0.5,3.2C754.1,163.8,754,164,753.7,164z"/>
				<path class="st28" d="M745.8,156c4.2-2.5,5.9-2.4,6.4-1.2c0.1,0.3,0,0.8-0.2,1.1c-1.4-0.1-2.8-0.1-2.4,0.8
					c0.1,0.3,1.5,3.5,0.4,3.6c-0.2-0.4-1-1.5-1.8-1.1c-0.5,0.3,0.1,1.8-2.1,2.3C745.8,159.6,745.4,156.7,745.8,156z"/>
			</g>
			<path class="st28" d="M752.9,158.6c0,0.1,0,0.2-0.3,0.2s-0.7,0-1,0c-0.1,0,0.4-0.2,1.2-0.6c0.2-0.1,0.1,0,0,0.2
				C752.8,158.3,752.9,158.5,752.9,158.6z"/>
		</g>
	</g>
	<g>
		<g>
			
				<linearGradient id="SVGID_25_" gradientUnits="userSpaceOnUse" x1="72.75" y1="721.0669" x2="72.75" y2="703.3641" gradientTransform="matrix(1 0 0 1 0 -462)">
				<stop  offset="0" style="stop-color:#FBFDFE;stop-opacity:0"/>
				<stop  offset="1" style="stop-color:#91D1DF"/>
			</linearGradient>
			<path class="st45" d="M72.8,242.4c0.1,0,1.4,0.4,1.4,0.4l0.6,0.4c-0.2,0-0.3,0-0.3,0l-5.9,19.1H74c2.1-3.6,2.5-12.1,2.9-19
				c-0.1,0-0.1,0-0.2,0V242l-1,0.1v0.5l-1.5-0.5h-1.4C72.8,242.1,72.6,242.4,72.8,242.4z"/>
			
				<linearGradient id="SVGID_26_" gradientUnits="userSpaceOnUse" x1="63.6843" y1="721.0677" x2="63.6843" y2="703.3695" gradientTransform="matrix(1 0 0 1 0 -462)">
				<stop  offset="0" style="stop-color:#FFFFFF;stop-opacity:0"/>
				<stop  offset="1" style="stop-color:#91D1DF"/>
			</linearGradient>
			<path class="st46" d="M60.9,242.4c0.1,0,1.4,0.4,1.4,0.4l0.8,0.5c-0.2,0.1-0.3,0.1-0.3,0.1l-2,18.9h5c2-6-0.2-11.7-0.4-19.3
				c-0.3,0-0.5,0-0.7,0l0.1-1h-1.1v0.5l-1.5-0.5h-1.4C60.8,242.1,60.6,242.4,60.9,242.4z"/>
		</g>
		<path class="st37" d="M55.5,185.5c0,0-0.5-2.5-1.1,0.2c-0.4,1.8,0.4,2.1,0.4,2.1l0.8-0.6L55.5,185.5z"/>
		<g>
			<path class="st27" d="M80.5,202.6c0,0-0.5,0.8-0.6,1c-0.2,0.4-0.1,1.2-0.8,2.1c-0.1,0.1,0.5,0.1,0.7-0.2c0.3-0.4,0.7-0.6,0.7-0.6
				l0.4,0.5c0,0-0.3,0-0.4,0.2c0.2,0.2,0.6,0.5,0.9,0.6c0.2,0.1,0.3,0,0.4-0.1c0-0.1,0.1-0.1,0.1-0.2c0.2-0.1,0.3-0.1,0.4-0.3
				s0.2-0.1,0.4-0.3c0-0.1,0-0.3,0-0.3s-0.5-0.6-0.7-1c-0.3-0.4-0.8-1.1-0.8-1.1l-0.2-0.3L80.5,202.6z"/>
		</g>
		<g>
			<g>
				<g>
					<path class="st28" d="M48.9,173.9c-0.2,0.4,0.1,0.9,0.5,1.1l0.3,0.1c0.5,0.2,1,0,1.1-0.4l1.9-4.6c0.2-0.4-0.1-0.9-0.5-1.1
						l-0.3-0.1c-0.5-0.2-1,0-1.1,0.4L48.9,173.9z"/>
					<g>
						<path class="st28" d="M40.6,167.2c-0.1,0.2,0,0.5,0.3,0.6l0.2,0.1c0.3,0.1,0.6,0,0.7-0.3l1.3-3.3c0.1-0.2,0-0.5-0.3-0.6
							l-0.2-0.1c-0.3-0.1-0.6,0-0.7,0.3L40.6,167.2z"/>
						<g>
							<path class="st28" d="M53.6,167.7c1.3,0.5,2,2,1.5,3.3s-2,2-3.3,1.5L53.6,167.7z"/>
							<path class="st31" d="M45,160c3.3,4,4.6,5.9,6,6.5c0.5,0.2,2.7,1.1,2.7,1.1l-1.9,4.8c0,0-2.5-1-2.9-1.2
								c-1.4-0.6-3.6,0.2-8.6,0.9L45,160z"/>
							<path class="st28" d="M39.4,171.9c-0.1,0.2,0,0.5,0.2,0.5l0,0c0.2,0.1,0.5,0,0.5-0.2L45,160c0.1-0.2,0-0.5-0.2-0.5l0,0
								c-0.2-0.1-0.5,0-0.5,0.2L39.4,171.9z"/>
						</g>
						<g>
							<path class="st47" d="M54.1,171.7c-0.1,0-0.2-0.2-0.1-0.3c0-0.1,0.2-0.2,0.3-0.1l0.5,0.2c-0.1,0.1-0.2,0.2-0.3,0.4
								L54.1,171.7z"/>
							<path class="st47" d="M55.2,170.6l-0.5-0.2c-0.1,0-0.2-0.2-0.1-0.3c0-0.1,0.2-0.2,0.3-0.1l0.4,0.2
								C55.3,170.3,55.2,170.5,55.2,170.6z"/>
							<path class="st47" d="M54.3,170.8c0-0.1,0.2-0.2,0.3-0.1l0.6,0.2v0.1c0,0.1-0.1,0.2-0.1,0.3l-0.6-0.2
								C54.3,171,54.2,170.9,54.3,170.8z"/>
						</g>
					</g>
					<path class="st48" d="M49.2,166.4c0.1,0,0.1,0,0.2,0c0.1-0.1,0.1-0.2,0-0.2c-1.5-1.5-3.9-4.6-4-4.6c-0.1-0.1-0.1-0.1-0.2,0
						c-0.1,0.1-0.1,0.1,0,0.2C45.2,161.7,47.6,164.8,49.2,166.4C49.1,166.4,49.2,166.4,49.2,166.4z"/>
				</g>
				<path class="st27" d="M48.7,173.1c0,0-0.1-0.1,0-0.3c0-0.1,0.3-0.2,0.3-0.2s-0.1-0.1,0-0.2c0.1-0.1,0.2-0.2,0.3-0.2
					s0.6,0.3,1,0.5c0,0.1-0.1,0.3-0.3,0.3c0,0,0.1,0.1,0,0.2c-0.1,0.1-0.2,0.1-0.2,0.1s0.1,0.1,0,0.2c-0.1,0.1-0.8,0.2-0.8,0.2
					c-0.1,0.2-0.1,0.5-0.1,0.7c0.2,0.4,0.6,0.7,1.1,0.6c0-0.1,0.2-0.5,0.5-0.9c0-0.2-0.1-0.8-0.1-1.1c0.1-0.3,0.3-0.3,0.3-0.3
					s0,0.4,0.2,0.8c0.1,0.4,0.4,0.9,0.4,0.9s-0.1,0.4-0.3,0.8c-0.2,0.3-0.4,0.8-0.4,0.8v0.5l-1.2-0.1c0,0,0-0.4-0.1-0.7
					c-0.1-0.2-0.7-2-0.8-2.1C48.5,173.2,48.7,173.1,48.7,173.1z"/>
			</g>
			<path class="st28" d="M63.3,175.3c0,0-6-0.7-7.6,3.2c-1.1,2.8-4.1,6.6-4.1,6.6l-0.8-9.1l-1.9,0.1c0,0-0.6,8.7-0.5,10.4
				c0.2,3.9,3.2,3.9,4.1,3.2c0.9-0.7,1.8-1.5,2.4-2C53.7,181.7,63.3,175.3,63.3,175.3z"/>
		</g>
		<path class="st37" d="M73.8,204.4c0,0-1.2-1.8-8.4-2.5c-6.8-0.6-5.3-14.9-5.3-14.9s7.6,6.6,11.4,11.5
			C72.5,199.9,73.8,204.4,73.8,204.4z"/>
		<path class="st28" d="M60.4,199.8c0,0-5.4-6.6-5.4-14.8c-0.1-6.3,5.3-10,5.3-10L60.4,199.8z"/>
		<path class="st32" d="M58.7,202.3c0,0-0.6-6.6-1.8-14.6c-1-6.5,3.5-13.9,3.5-13.9l3.2,0.7c0,0,6.1,5.3,7.5,11.5
			c0.8,3.8,1,8.3,1,8.3l-0.2,8.2L58.7,202.3z"/>
		<path class="st31" d="M61,202.8c0,0,0.6-4-0.9-6.4c-1.6-2.6-1.6-7.8-1.6-7.8s0.5,4.3,1.8,7.5c1.2,3.2,1.2,6.7,1.2,6.7H61z"/>
		<path class="st31" d="M63.6,174.6l0.3,0.2l-2.5,2.9c0,0-1.3-0.5-1.8-1.7C62.1,176.1,63.6,174.6,63.6,174.6z"/>
		<path class="st28" d="M74.5,198.9c-0.2-0.2-1.9-2.7-2.2-3.2c0-4.8,1.8-11.4,1-16.3c-0.4-0.6-0.8-1-1.4-1.2c-4.9-2-7.9-3.3-7.9-3.3
			s-7.1,10.3,1.1,18.4c6.1,6.1,9.5,12.7,9.5,12.7S77.5,203.2,74.5,198.9z"/>
		<path class="st31" d="M59.2,190.1c1.2,4.8,2.4,10.5,2.4,10.5s1.8,0,2.6,0.2s1.5,0.6,1.5,0.6s-0.3-2.8-0.9-3.5
			C61.1,193.6,58,185.3,59.2,190.1z"/>
		<path class="st47" d="M59.5,176.1c0,0-0.4,0.2-0.6,1.1c0,0.5,0.3,0.9,0.3,0.9s-1.6,3-1.5,7.1C57.8,191.6,60,200,60,200l2.7,1.6
			l0.8-2.4c0,0-3.2-8.2-4.1-14.4c-0.6-4.3,0.3-6.6,0.3-6.6s0.2-0.1,0.9-0.7C59.9,177,59.5,176.1,59.5,176.1z"/>
		<path class="st43" d="M64.6,176.3c0,0-2,2.7-0.9,4.3c-0.8,0.5-1.5,0.9-1.5,0.9s0.4,0.6,1.3,1.5c-0.6,1.2-1,4.7-0.2,7.4
			c-3-4.4-1.7-9.1-1-11.1s1.9-3.9,1.9-3.9L64.6,176.3z"/>
		<polygon class="st28" points="81.1,202.9 79.9,203.5 69.1,183.3 73.4,179.6 		"/>
		<path class="st28" d="M76.6,240.8l0.1,1.3h-1.1v-0.4l-1.5,0.5h-1.4c0,0-0.2-0.3,0.1-0.3c0.1,0,1.4-0.4,1.4-0.4l1.2-0.8L76.6,240.8
			z"/>
		<path class="st28" d="M64.7,240.8l0.1,1.3h-1.1v-0.4l-1.5,0.5h-1.4c0,0-0.2-0.3,0.1-0.3c0.1,0,1.4-0.4,1.4-0.4l1.3-0.8L64.7,240.8
			z"/>
		<path class="st28" d="M62.8,240.8c0,0,1.1,0.4,2.6,0.4c0.2-7.6,2.4-13.4,0.3-19.4c0.3-9.6,3.2-19.6,3.2-19.6l-10.2,0.1L62.8,240.8
			z"/>
		<path class="st37" d="M66.5,213.5l-0.3,2.4c0,0-1.3-4-1.3-6.4C64.9,206,66.5,213.5,66.5,213.5z"/>
		<path class="st28" d="M62.6,202.3L74.5,241c0,0,1.7-0.1,2.4-0.1c-0.4-7.1-0.8-15.9-3.1-19.3c-1.5-11.8-0.6-16.1-1.8-19.5
			C67.1,202.3,62.6,202.3,62.6,202.3z"/>
		<g>
			
				<linearGradient id="SVGID_27_" gradientUnits="userSpaceOnUse" x1="-1507.4532" y1="1243.3601" x2="-1511.6058" y2="1241.0763" gradientTransform="matrix(-1 1.400000e-03 1.400000e-03 1 -1451.4838 -1066.141)">
				<stop  offset="0" style="stop-color:#56B9CE"/>
				<stop  offset="0.5583" style="stop-color:#A0D8E3"/>
				<stop  offset="1" style="stop-color:#DAF0F4"/>
			</linearGradient>
			<path class="st49" d="M63.4,174.5c0,0-0.5-0.8-0.4-2.5c0.1-1.6-1.7-1.5-1.7-1.5s-0.7,1.4-0.9,2.2s-1,1.3-1.4,1.3
				c-0.8,0.1-2.1,0-2.1,0s2.1,0.5,2.7,1.8C61.6,176,63.4,174.5,63.4,174.5z"/>
			<path class="st27" d="M57.1,174.1c0.7,0,1.7,0,2.3,0c0.9-0.1,1-0.9,1-0.9l0.5-1.4c0,0,0.3-0.2,0.6-0.5c0.1-0.1,0.3-0.8-0.3-1.1
				c-1-0.4-0.1-2.6-0.1-2.6l-1.3-0.4l-1.2,0.6l-2.1,3.2c0,0,0,0.2,0.2,0.2c0.3,0.1,0.5,0.1,0.5,0.1s-0.3,2.2-0.4,2.4
				C56.8,173.9,56.9,174.1,57.1,174.1z"/>
			<path class="st28" d="M63.1,168.2c-3.2-2-4.3-2-4.6-1.2c-0.1,0.2-0.1,0.6,0.1,0.8c1.1-0.1,2.1,0,1.8,0.7
				c-0.1,0.2-1.2,2.7-0.3,2.8c0.2-0.3,0.8-1.2,1.4-0.8c0.4,0.2-0.1,1.4,1.6,1.8C63.2,170.8,63.3,168.8,63.1,168.2z"/>
		</g>
		<g>
			<path class="st28" d="M57.9,169.9c0,0.1,0,0.1,0.2,0.2c0.2,0,0.5,0,0.7,0c0.1,0-0.3-0.1-0.8-0.5c-0.1-0.1-0.1,0,0,0.1
				C57.9,169.7,57.9,169.8,57.9,169.9z"/>
		</g>
	</g>
	<g>
		<path class="st27" d="M95.8,172.9c0,0-8.2,7.3-8.7,7.4c-1.1,0.2-2.1,1.3-4.7,2.1c-0.1,0.2,0.5,0.7,1.4,0.3s1.3,0.4,1.3,0.4
			s0,0.5,0.5,0.8c0.4,0.3,0.5,0.9,0.5,0.8c0.8-0.7,2-1.7,2.2-2.1c0.4-0.5,0.5-1.1,0.5-1.1l8.6-6.2L95.8,172.9z"/>
		<g>
			
				<linearGradient id="SVGID_28_" gradientUnits="userSpaceOnUse" x1="842.6512" y1="697.3141" x2="842.6512" y2="718.4312" gradientTransform="matrix(1 0 0 1 -741.5137 -462)">
				<stop  offset="0" style="stop-color:#56B9CE"/>
				<stop  offset="1" style="stop-color:#FFFCFF;stop-opacity:0"/>
			</linearGradient>
			<path class="st50" d="M98.1,242.3c0.8,0.1,1,0.5,1.4,0.9l0,0l1.9,3.5l-2,15.7h4.9c-0.7-6.3-1.8-15.5-1.8-15.5l0.3-1.1
				c0.1-0.1,0.5-0.6,0.1-1.2c-0.6-0.9-0.5-2.6-0.5-2.6h-0.5c0,0,0.1,1.1-0.2,2.1c-0.7-0.6-1.1-2.1-1.6-2.1c-0.4,0-2.1,0-2.1,0
				S97.9,242.3,98.1,242.3z"/>
			
				<linearGradient id="SVGID_29_" gradientUnits="userSpaceOnUse" x1="852.501" y1="697.7736" x2="852.501" y2="718.5315" gradientTransform="matrix(1 0 0 1 -741.5137 -462)">
				<stop  offset="0" style="stop-color:#56B9CE"/>
				<stop  offset="1" style="stop-color:#FFFCFF;stop-opacity:0"/>
			</linearGradient>
			<path class="st51" d="M110.9,242.7c0.7,0.3,0.9,0.7,1.2,1.1l0,0l1.1,3.6l-6.5,14.9h5.6c1-6,2-14.4,2-14.4l0.5-0.9l0,0
				c0,0,0.7-0.4,0.4-1.1c-0.4-1,0-2.6,0-2.6l-0.5-0.1c0,0-0.1,1.1-0.6,2c-0.6-0.7-0.6-2.3-1.1-2.4c-0.4-0.1-2.1-0.5-2.1-0.5
				S110.7,242.6,110.9,242.7z"/>
		</g>
		<g>
			
				<linearGradient id="SVGID_30_" gradientUnits="userSpaceOnUse" x1="-984.6171" y1="657.3117" x2="-999.8375" y2="680.2672" gradientTransform="matrix(1 0 0 1 1097.4805 -462)">
				<stop  offset="0" style="stop-color:#77C7DC"/>
				<stop  offset="1" style="stop-color:#D8EEF2"/>
			</linearGradient>
			<path class="st52" d="M99.5,240.9l1.9-3.5l-2.7-27.6c0,0-0.8-6.1-0.1-12.8c0.2-2,1.5-10.6,1.5-10.6s9.9,5.3,8.6,8.7
				c-1.8,4.6-2.9,10.3-5.2,15.4c3.1,2.6-0.9,27-0.9,27l0.3,1l-1.1,1.5l-1.4,1.6L99.5,240.9z"/>
			<path class="st28" d="M99.5,240.8c-0.4,0.4-0.6,0.7-1.4,0.9c-0.2,0-0.1,0.3-0.1,0.3s1.7,0,2.1,0c0.5,0,0.9-1.5,1.6-2.1
				c0.3,1,0.2,2.1,0.2,2.1h0.5c0,0-0.1-1.7,0.5-2.6c0.4-0.6-0.1-1.2-0.1-1.2s-0.4,0.3-1.3,1.4C100.6,240.8,100,240.9,99.5,240.8z"/>
		</g>
		<path class="st28" d="M96.7,182.7c-0.6-4.2-1.3-8.7-1.4-10c-0.2-5.8,7.2-12.9,7.2-12.9s1.4,0.1,5.4,2.4c2.2,1.3-1.2,4.3-1.6,7.5
			c-0.8,7.5-0.3,14.4-0.3,14.4S100.8,185.1,96.7,182.7z"/>
		<g>
			<path class="st53" d="M112.1,241l1.1-3.7l-8.1-25.8c0,0-1.9-9.1-3-15.8c-0.3-2,7.5-6.9,7.7-3.3c0.4,5.2,0.9,13,0,18.5
				c5.4,3.1,4.6,25.9,4.6,25.9l0.6,1l-0.3,0.6l-1.6,2.7L112.1,241z"/>
			<path class="st28" d="M112.1,240.9c-0.3,0.4-0.4,0.9-1.2,1.1c-0.2,0.1-0.1,0.3-0.1,0.3s1.7-0.4,2.1-0.4c0.5-0.1,0.6-1.7,1.1-2.4
				c0.5,0.9,0.6,2,0.6,2l0.5-0.1c0,0-0.4-1.6,0-2.6c0.3-0.7-0.4-1.1-0.4-1.1s-0.3,0.4-1,1.6C113.1,240.7,112.5,240.9,112.1,240.9z"
				/>
		</g>
		<path class="st32" d="M97.3,185.3c0,0,0.2-6.3-0.6-10.7c-2.3-5,5.8-12.7,5.8-12.7s3.2,1.8,4.6,2.9c3.2,2.8,2.2,4.9,1,8
			c-1.9,7.5-0.3,12.3-0.3,12.3L97.3,185.3z"/>
		<path class="st31" d="M98.5,185.2c0,0,0.3-3.2-0.7-6.6c-1-3.5,0.1-6.9,0.1-6.9s-0.3,2.8,0.3,6.7c0.7,4.2,1.1,6.9,1.1,6.9
			L98.5,185.2L98.5,185.2z"/>
		<path class="st28" d="M107.6,184.2c0,0-1.1-6.3,1.5-12.2c0.7-1.4,1.3-2.6,1.6-3.1c1-1.9,0.9-3.7,0.1-4.2c-2.2-1.4-4.8-2.8-7-4.1
			c-6.3,6.4-5.8,12.9-3.8,22.3C104.4,184.8,107.6,184.2,107.6,184.2z"/>
		<path class="st28" d="M109.2,186.6c3.2,4.6-0.9,14.6,3,21.8c-6.2,2.1-9.6,2.9-14.1,1.9c-1.1-15.7-0.7-25-0.7-25l10.4-0.3
			C107.7,185,108.5,185.7,109.2,186.6z"/>
		
			<linearGradient id="SVGID_31_" gradientUnits="userSpaceOnUse" x1="-2514.9141" y1="1533.7008" x2="-2519.4265" y2="1534.3406" gradientTransform="matrix(-0.9275 0.3739 0.3739 0.9275 -2808.5994 -323.4002)">
			<stop  offset="0" style="stop-color:#77C7DC"/>
			<stop  offset="1" style="stop-color:#D8EEF2"/>
		</linearGradient>
		<path class="st54" d="M104.3,160.5c-0.6-0.9-0.1-4.8-0.1-5.2l-3.3-2.9c0,0-1,1.7-0.2,4.1c0.2,0.7-0.5,1.2-1.1,1.5
			c-1,0.6-1.7,1.2-2,1.4c1.4,0,2,0,2.4,0.7s0.7,2.1,1.5,3.2C102.5,162.3,103.7,161.2,104.3,160.5z"/>
		<path class="st28" d="M100,149.6c0,0-2.1-0.9-3.3,2.1c-1,2.5,1.8,3.5,2,3.5C98.8,153.3,100,149.6,100,149.6z"/>
		<path class="st53" d="M98.1,159.3c0.8-0.2,1-0.3,1.8-0.6c1.5-0.6,1.4-2.7,1.4-2.7s0.8-0.7,0.8-1.4c-0.1-0.7,0-1-1.1-1.2
			c-1.6-0.3-0.5-2.5-0.5-2.5l-1-0.7c0,0-0.4,0.1-0.8,0.5c-0.6,0.6-1.3,1.9-1.3,3.7c-0.5,0.9-1,1.7-1,1.7s0,0.3,0.3,0.3
			c0.2,0,0.4,0.2,0.4,0.2s0,0.4-0.2,0.6c0,0.1,0.1,0.3,0.3,0.4c-0.1,0.1-0.2,0.3-0.2,0.4c0.5,0.4,0,1.1,0.5,1.5
			C97.5,159.5,97.7,159.4,98.1,159.3z"/>
		<path class="st28" d="M97.8,154.6c0,0.1,0,0.2,0.3,0.2s0.4-0.1,0.7-0.2c0.1,0-0.3-0.1-1-0.4c-0.2-0.1-0.1,0,0,0.1
			C97.8,154.4,97.8,154.5,97.8,154.6z"/>
		<path class="st27" d="M104.1,160.3c0,0-0.9,0.6-2.2,2.1c-2.4,2.7-3.6,5.9-4,8.6c1.5-3,3.7-4.3,3.7-4.3l-0.9-1.7l2,0.5l2-4.8
			L104.1,160.3z"/>
		<path class="st28" d="M104.3,149.9c-2.9-1.9-5.1-0.5-5.6,0.7c0,0.3-0.5,1.1,0.3,2.7c0.7,1.2,1.5,2.2,2.4,3.8
			c0.9,1.5-0.4,2.8-1.2,3.2c3,1.9,6.2,0,7-1.5C108.3,156.8,106.8,151.6,104.3,149.9z"/>
		<g>
			<g>
				<path class="st28" d="M98.6,183.3c0.1,0.4-0.1,0.7-0.5,0.8l-10.8,3.1c-0.4,0.1-0.7-0.1-0.8-0.5l-4.1-14.4
					c-0.1-0.4,0.1-0.7,0.5-0.8l10.8-3.1c0.4-0.1,0.7,0.1,0.8,0.5L98.6,183.3z"/>
				
					<rect x="84" y="171.6" transform="matrix(0.9621 -0.2728 0.2728 0.9621 -43.8779 30.9182)" class="st55" width="10.5" height="3.3"/>
				
					<rect x="85.2" y="177.2" transform="matrix(0.9621 -0.2727 0.2727 0.9621 -45.3284 30.2616)" class="st31" width="2" height="2"/>
				<rect x="88" y="176.4" transform="matrix(0.962 -0.2729 0.2729 0.962 -45.0341 31.0231)" class="st31" width="2" height="2"/>
				
					<rect x="90.8" y="175.6" transform="matrix(0.9621 -0.2728 0.2728 0.9621 -44.6943 31.742)" class="st31" width="2" height="2"/>
				<rect x="93.5" y="174.8" transform="matrix(0.962 -0.2729 0.2729 0.962 -44.3893 32.4621)" class="st31" width="2" height="2"/>
				<rect x="86" y="179.9" transform="matrix(0.9621 -0.2727 0.2727 0.9621 -46.0324 30.5812)" class="st55" width="2" height="2"/>
				
					<rect x="88.8" y="179.2" transform="matrix(0.9621 -0.2728 0.2728 0.9621 -45.7529 31.3335)" class="st55" width="2" height="2"/>
				
					<rect x="91.5" y="178.4" transform="matrix(0.9621 -0.2728 0.2728 0.9621 -45.4329 32.0381)" class="st55" width="2" height="2"/>
				
					<rect x="94.3" y="177.6" transform="matrix(0.9621 -0.2728 0.2728 0.9621 -45.1081 32.7715)" class="st31" width="2" height="2"/>
				
					<rect x="86.8" y="182.7" transform="matrix(0.9621 -0.2728 0.2728 0.9621 -46.7815 30.9193)" class="st55" width="2" height="2"/>
				
					<rect x="89.5" y="181.9" transform="matrix(0.9621 -0.2727 0.2727 0.9621 -46.4463 31.6106)" class="st55" width="2" height="2"/>
				
					<rect x="92.3" y="181.2" transform="matrix(0.9621 -0.2728 0.2728 0.9621 -46.1664 32.3626)" class="st55" width="2" height="2"/>
				
					<rect x="95.1" y="180.4" transform="matrix(0.9621 -0.2728 0.2728 0.9621 -45.8421 33.0968)" class="st42" width="2" height="2"/>
			</g>
			<g>
				
					<rect x="92.6" y="170.8" transform="matrix(0.964 -0.2658 0.2658 0.964 -42.1009 30.8025)" class="st42" width="0.3" height="0.3"/>
				
					<rect x="92.4" y="171.2" transform="matrix(0.9635 -0.2676 0.2676 0.9635 -42.4774 31.0166)" class="st42" width="0.3" height="0.3"/>
				
					<rect x="92.7" y="171.1" transform="matrix(0.9629 -0.27 0.27 0.9629 -42.7879 31.4295)" class="st42" width="0.3" height="0.3"/>
				
					<rect x="92.9" y="171.1" transform="matrix(0.9631 -0.2692 0.2692 0.9631 -42.667 31.3707)" class="st42" width="0.3" height="0.3"/>
				
					<rect x="92.1" y="171.6" transform="matrix(0.9632 -0.2689 0.2689 0.9632 -42.7861 31.1304)" class="st42" width="0.3" height="0.3"/>
				
					<rect x="92.7" y="171.4" transform="matrix(0.9633 -0.2684 0.2684 0.9633 -42.6369 31.215)" class="st42" width="0.3" height="0.3"/>
				
					<rect x="93.3" y="171.3" transform="matrix(0.9631 -0.269 0.269 0.9631 -42.6761 31.4577)" class="st42" width="0.3" height="0.3"/>
				
					<rect x="92.2" y="171.9" transform="matrix(0.963 -0.2694 0.2694 0.963 -42.9359 31.2392)" class="st42" width="0.3" height="0.3"/>
				
					<rect x="92.8" y="171.7" transform="matrix(0.9632 -0.2687 0.2687 0.9632 -42.757 31.2948)" class="st42" width="0.3" height="0.3"/>
				
					<rect x="92.6" y="172.1" transform="matrix(0.9632 -0.2689 0.2689 0.9632 -42.902 31.2846)" class="st42" width="0.3" height="0.3"/>
				
					<rect x="92.9" y="172" transform="matrix(0.9627 -0.2707 0.2707 0.9627 -43.1262 31.6149)" class="st42" width="0.3" height="0.3"/>
				
					<rect x="93.2" y="171.9" transform="matrix(0.9637 -0.2671 0.2671 0.9637 -42.5621 31.1836)" class="st42" width="0.3" height="0.3"/>
				
					<rect x="93" y="172.3" transform="matrix(0.9628 -0.2701 0.2701 0.9628 -43.1157 31.5693)" class="st42" width="0.3" height="0.3"/>
				
					<rect x="93.6" y="172.2" transform="matrix(0.9635 -0.2677 0.2677 0.9635 -42.717 31.388)" class="st42" width="0.3" height="0.3"/>
				
					<rect x="92.5" y="172.8" transform="matrix(0.9636 -0.2673 0.2673 0.9636 -42.8583 31.0589)" class="st42" width="0.3" height="0.3"/>
				
					<rect x="93.1" y="172.6" transform="matrix(0.9631 -0.2693 0.2693 0.9631 -43.0764 31.4947)" class="st42" width="0.3" height="0.3"/>
				
					<rect x="93.7" y="172.4" transform="matrix(0.9632 -0.2686 0.2686 0.9632 -42.8963 31.5493)" class="st42" width="0.3" height="0.3"/>
				
					<rect x="92.9" y="173" transform="matrix(0.9636 -0.2672 0.2672 0.9636 -42.8817 31.159)" class="st42" width="0.3" height="0.3"/>
				
					<rect x="93.1" y="172.9" transform="matrix(0.9629 -0.27 0.27 0.9629 -43.2609 31.6039)" class="st42" width="0.3" height="0.3"/>
				
					<rect x="93.4" y="172.8" transform="matrix(0.9635 -0.2677 0.2677 0.9635 -42.8843 31.3548)" class="st42" width="0.3" height="0.3"/>
				
					<rect x="93.2" y="173.2" transform="matrix(0.963 -0.2696 0.2696 0.963 -43.2786 31.5846)" class="st42" width="0.3" height="0.3"/>
			</g>
		</g>
		<path class="st27" d="M107.9,177.4c0,0-7.2-0.5-9.1-0.6c-0.8-0.5-2.5-1.9-2.5-1.9s-0.4,0.3,0.1,0.9c0.3,0.4,0.3,0.8,0.3,0.8
			l-1.4,0.6c0,0-2.3,0.9-2.4,1c-0.3,0.2-0.1,0.5-0.1,0.5c0.6-0.2,1.8-0.5,1.8-0.5s-1,0.6-1.5,0.8c-0.2,0.1-0.2,0.4-0.1,0.5l1.9-0.8
			c0,0-1.1,0.6-1.3,0.8c-0.3,0.2,0,0.5,0,0.5l2.2-1l2.4-0.8l9.4,1.8L107.9,177.4z"/>
		<path class="st27" d="M86.3,184.5c0,0-0.2,0.4-0.6,0.4c-0.6,0-0.5-0.6-0.5-0.6s-0.4,0-0.5-0.2c-0.2-0.3,0-0.6,0-0.6
			s-0.3,0-0.4-0.1c-0.2-0.3,0-0.5,0.1-0.7c0.1-0.1,0.9-0.6,1.7-1.1c0.3-0.1,0.5,0.2,0.3,0.5c0.1,0,0.3-0.1,0.4,0.1
			c0.1,0.3,0,0.5,0,0.5s0.3-0.2,0.4,0.1s-0.8,1.5-0.8,1.5L86.3,184.5z"/>
		<path class="st28" d="M107.9,168.1c0.8,2.5,3.1,9.5,3.1,9.5l-3.3-0.2l-0.1,2.6c0,0,2.7,0.6,3.9,0.8c4,0.6,3.2-3.5,3.2-3.5
			s-1.3-8.8-2.5-12.1c-0.4-1.2-6.5-4.2-7.2-4.6C103.7,159.9,107.7,167.4,107.9,168.1z"/>
	</g>
	<g>
		<g>
			
				<linearGradient id="SVGID_32_" gradientUnits="userSpaceOnUse" x1="-489.1054" y1="721.588" x2="-489.1054" y2="703.9955" gradientTransform="matrix(-1 0 0 1 314.0273 -462)">
				<stop  offset="0" style="stop-color:#FFFFFF;stop-opacity:0"/>
				<stop  offset="1" style="stop-color:#91D1DF"/>
			</linearGradient>
			<path class="st56" d="M806.8,242.1c-0.1,0-1.7,0.5-1.7,0.5l-1,0.6c0.2,0.1,0.4,0.1,0.4,0.1l1.1,18.9h-6.3
				c0.4-3.2,1.8-15.7,2-19.5c0.3,0,0.6,0,0.9,0.1l-0.1-1h1.3v0.5l1.8-0.6h1.7C806.9,241.7,807.1,242,806.8,242.1z"/>
			
				<linearGradient id="SVGID_33_" gradientUnits="userSpaceOnUse" x1="-477.5727" y1="721.588" x2="-477.5727" y2="703.9955" gradientTransform="matrix(-1 0 0 1 314.0273 -462)">
				<stop  offset="0" style="stop-color:#FFFFFF;stop-opacity:0"/>
				<stop  offset="1" style="stop-color:#91D1DF"/>
			</linearGradient>
			<path class="st57" d="M792.7,242.1c-0.1,0-1.7,0.5-1.7,0.5l-0.7,0.4c0.2,0,0.4,0,0.4,0l4.7,19.2h-6.9c-0.2-3.3-0.6-15.9-0.7-19.1
				c0.1,0,0.1,0,0.2,0l-0.1-1.3h1.3v0.5l1.8-0.6h1.7C792.8,241.7,793,242,792.7,242.1z"/>
		</g>
		<g>
			<rect x="785.3" y="208.5" class="st58" width="1" height="1.1"/>
			<rect x="783.8" y="208.5" class="st58" width="1" height="1.1"/>
			<rect x="780.7" y="208.5" class="st58" width="1" height="1.1"/>
			<rect x="779.2" y="208.5" class="st58" width="1" height="1.1"/>
			<rect x="786.8" y="210.1" class="st58" width="1" height="1.1"/>
			<rect x="783.8" y="210.1" class="st58" width="1" height="1.1"/>
			<rect x="782.2" y="210.1" class="st58" width="1" height="1.1"/>
			<rect x="780.7" y="210.1" class="st58" width="1" height="1.1"/>
		</g>
		<path class="st27" d="M811.5,194.4c0,0.3,0,0.2,0.1,0.5s2.2,2.9,2.2,2.9s-0.6,0.4-1.1-0.2c-0.5-0.5-0.7-0.4-0.7-0.4s0,0.1-0.1,1.3
			c0.2,0.6,0.1,1.5-0.1,1.9c0,0.1-0.3,0.3-0.4,0.1c-0.1,0.2-0.4,0.2-0.4,0.2c-0.1-0.1-0.3-0.9-0.5-1.5c-0.1,0.4,0.2,1.3-0.2,1.2
			c-0.1-0.2-0.3-1.4-0.3-1.5c0-0.2-0.3-1.1-0.3-1.9c0-0.8,0.3-1.7,0.3-1.7v-0.6C810,194.4,810.7,194.3,811.5,194.4z"/>
		
			<linearGradient id="SVGID_34_" gradientUnits="userSpaceOnUse" x1="387.4706" y1="601.3329" x2="397.9012" y2="601.3329" gradientTransform="matrix(0.9949 0.101 -0.101 0.9949 478.3656 -460.3278)">
			<stop  offset="0" style="stop-color:#9ED7E3"/>
			<stop  offset="1" style="stop-color:#FFFFFF"/>
		</linearGradient>
		<path class="st59" d="M810.9,167.2c0.1,5,0.2,8.6,0.4,13.5c0.3,5.3,0.5,14.3,0.5,14.3l-2.5,0.4c0,0-1.4-6.7-2.7-13.1
			c-0.7-3.4-0.9-9.3-0.9-9.3s-2.6-15.2,0.3-13.2C807.5,160.9,810.7,162.5,810.9,167.2z"/>
		<path class="st32" d="M808.7,192.9c0,0,0.7-9.5,1.7-19.4c0.8-8.2-5.8-15.5-5.8-15.5l-3.7-0.2c0,0-6.2,6.9-7.3,14.7
			c-0.7,4.8-0.5,13.5-0.5,13.5l-0.1,8.1L808.7,192.9z"/>
		
			<linearGradient id="SVGID_35_" gradientUnits="userSpaceOnUse" x1="317.0079" y1="638.204" x2="335.3918" y2="638.204" gradientTransform="matrix(1 0 0 1 472.3662 -462)">
			<stop  offset="0" style="stop-color:#9ED7E3"/>
			<stop  offset="1" style="stop-color:#FFFFFF"/>
		</linearGradient>
		<path class="st60" d="M792.5,193.1c0,0-0.2-8.1-1.5-15.2c3.9-14.7-2.1-10.8-1.7-13.4c0.4-0.7,0.9-1.3,1.6-1.6
			c5.9-2.9,9.6-4.7,9.6-4.7s4.9,2.9,5.7,4.4c3,5.4,0.7,17.7,0.2,23.2c-0.4,3.6-0.6,5.5-1.3,7.7C801.5,195.3,792.5,193.1,792.5,193.1
			z"/>
		<path class="st31" d="M806.6,193.4c0,0-1.2-5.4,0.4-8.5c1.8-3.4,1.3-10,1.3-10s-0.3,5.4-1.5,9.4c-1.3,4-1.2,9.2-1.2,9.2
			L806.6,193.4z"/>
		<path class="st47" d="M805.7,160.2c0,0,0.5,0.3,0.7,1.3c0.1,0.6,0,1,0,1s2.2,3.5,2.4,8.6c0.3,7.9-0.1,17.9-0.1,17.9l-2.7,2.5
			l-1.9-3c0,0,1.9-10,2.5-17.7c0.4-5.3-0.9-8.1-0.9-8.1s-0.4-0.5-1.1-1C805.6,160.9,805.7,160.2,805.7,160.2z"/>
		
			<linearGradient id="SVGID_36_" gradientUnits="userSpaceOnUse" x1="897.7906" y1="1081.2986" x2="892.3326" y2="1078.2966" gradientTransform="matrix(0.9997 2.380000e-02 -2.380000e-02 0.9997 -63.4204 -943.5278)">
			<stop  offset="0" style="stop-color:#56B9CE"/>
			<stop  offset="0.5583" style="stop-color:#A0D8E3"/>
			<stop  offset="1" style="stop-color:#DAF0F4"/>
		</linearGradient>
		<path class="st61" d="M800.9,157.7c0,0,0.7-1.1,0.6-3.2c-0.1-2.1,2.2-1.9,2.2-1.9s0.9,1.8,1.1,2.9c0.2,1,1.3,1.7,1.7,1.8
			c1,0.1,2.7,0.1,2.7,0.1s-2.8,0.5-3.7,2.4C803.3,160,800.9,157.7,800.9,157.7z"/>
		<path class="st27" d="M809.2,157.5c-0.9,0-1.9,0-2.7-0.1c-1.1-0.1-1.6-1.2-1.6-1.2l-0.6-1.9c0,0-0.4-0.2-0.8-0.6
			c-0.1-0.2-0.4-1,0.4-1.4c1.3-0.5,0.2-3.4,0.2-3.4l1.7-0.5l1.5,0.8l2.7,4.3c0,0,0,0.2-0.3,0.3c-0.4,0.1-0.7,0.1-0.7,0.1
			s0.5,3.1,0.5,3.2C809.7,157.2,809.5,157.5,809.2,157.5z"/>
		<path class="st28" d="M788,240.3l-0.1,1.5h1.3v-0.5l1.8,0.6h1.7c0,0,0.2-0.3-0.1-0.4c-0.1,0-1.7-0.5-1.7-0.5l-1.5-1L788,240.3z"/>
		<path class="st28" d="M802.1,240.3l-0.1,1.5h1.3v-0.5l1.8,0.6h1.7c0,0,0.2-0.3-0.1-0.4c-0.1,0-1.7-0.5-1.7-0.5l-1.5-1L802.1,240.3
			z"/>
		<path class="st28" d="M804.4,240.3c0,0-1.3,0.5-3.2,0.6c-0.5-9.3-3-16.4-0.7-23.8c-0.7-11.8-4.3-24-4.3-24l12.5-0.2L804.4,240.3z"
			/>
		<path class="st37" d="M799.4,207.4l0.4,2.6c0,0,1.7-5.1,1.7-8.1C801.3,197.7,799.4,207.4,799.4,207.4z"/>
		<path class="st28" d="M804,193l-13.4,47.6c0,0-2.2,0-2.9-0.1c0.3-8.7,0.5-19.2,3.2-23.5c1-13.2,0.6-17,1.6-24
			C798.4,193.1,804,193,804,193z"/>
		<path class="st37" d="M794.9,210.1c0,0.9-0.7,1.6-1.5,1.6l-13.7,0.4c-0.9,0-1.6-0.7-1.6-1.5l-0.2-8.7c0-0.9,0.7-1.6,1.5-1.6
			l13.7-0.4c0.9,0,1.6,0.7,1.6,1.5L794.9,210.1z"/>
		<g>
			<path class="st28" d="M794.2,210.1c0,0.9-0.7,1.6-1.5,1.6l-13.7,0.4c-0.9,0-1.6-0.7-1.6-1.5l-0.2-8.7c0-0.9,0.7-1.6,1.5-1.6
				l13.7-0.4c0.9,0,1.6,0.7,1.6,1.5L794.2,210.1z"/>
			<path class="st28" d="M784.3,202.1c-1.1,0-2-0.9-2-2s0.9-2.1,2-2.1l2.5-0.1c1.1,0,2,0.9,2,2s-0.9,2.1-2,2.1L784.3,202.1
				L784.3,202.1z M786.7,198.7L786.7,198.7l-2.4,0.1c-0.7,0-1.3,0.6-1.2,1.3c0,0.7,0.6,1.2,1.3,1.2l0,0l2.4-0.1
				c0.7,0,1.3-0.6,1.2-1.3C788,199.2,787.4,198.7,786.7,198.7L786.7,198.7z"/>
			<g>
				<path class="st32" d="M786.8,205.3v1.1c0,0.6-0.5,1.2-1.1,1.2l0,0c-0.6,0-1.2-0.5-1.2-1.1v-1.1L786.8,205.3z"/>
			</g>
		</g>
		<g>
			<path class="st27" d="M785.3,195.3c0,0,0.9,0.7,1.1,0.8c0.4,0.3,0.7,1.1,2,1.8c0.1,0.1-0.5,0.3-0.8,0.1c-0.6-0.3-1.1-0.3-1.1-0.3
				l-0.2,0.8h0.5c0,0-0.3,0.5-0.5,0.8c-0.2,0.2-0.4,0.1-0.5,0.1c-0.1-0.1-0.2-0.1-0.3-0.1c-0.2,0-0.4,0.1-0.6-0.1
				c-0.2-0.1-0.3,0-0.6-0.1c-0.1-0.1-0.2-0.3-0.2-0.3l0.1-3.1L785.3,195.3z"/>
		</g>
		
			<linearGradient id="SVGID_37_" gradientUnits="userSpaceOnUse" x1="311.4384" y1="641.7186" x2="321.8091" y2="641.7186" gradientTransform="matrix(1 0 0 1 472.3662 -462)">
			<stop  offset="0" style="stop-color:#9ED7E3"/>
			<stop  offset="1" style="stop-color:#FFFFFF"/>
		</linearGradient>
		<path class="st62" d="M783.8,196l2.9,0.2c0,0,1.1-10.3,7.5-25.7c-0.1-1.5-2.6-11.5-5.1-5.2C783.1,180.1,783.8,196,783.8,196z"/>
		<path class="st31" d="M800.9,157.8l-0.5,0.4l3.5,3.7c0,0,1.1-0.3,1.8-1.8C802.9,160.2,800.9,157.8,800.9,157.8z"/>
		<path class="st28" d="M808.6,152c0,0.1,0,0.2-0.3,0.2s-0.3,0-0.7-0.1c-0.1,0,0.1-0.3,0.9-0.6c0.2-0.1,0.1,0,0,0.2
			C808.5,151.7,808.6,151.9,808.6,152z"/>
		<path class="st28" d="M801.3,149.7c0.2-0.4,0.5-0.6,1.1-0.9c0.6-0.2,0.9-0.6,1.4-0.9c0.5-0.2,1-0.2,1.4-0.4
			c1.4-0.8,2.1-0.2,2.4,0.5c0.1,0.2,0.1,0.8-0.2,1.1c-1.5-0.1-2.8-0.1-2.4,0.9c0.1,0.3,1.5,3.4,0.4,3.6c-0.3-0.4-0.9-1.5-1.8-1.1
			c-0.5,0.3,0.2,1.9-2.2,2.4c-0.5-1.3-0.2-2.3-0.4-3.4C800.9,150.4,801.1,150,801.3,149.7z"/>
		<path class="st28" d="M808.7,153.3c-0.1,0.1-0.3,0.1-0.4,0c-0.5-0.2-0.8-1.3-0.9-1.6l-1.7,0.5l-0.1-0.3l3.5-1.1v0.2
			c0,0.2,0.4,1.7-0.2,2.2C808.8,153.2,808.7,153.2,808.7,153.3z M807.6,151.6c0.1,0.5,0.5,1.3,0.8,1.4c0.1,0,0.1,0,0.2,0
			c0.4-0.2,0.3-1.1,0.2-1.8L807.6,151.6z"/>
	</g>
</g>
<script  type="text/javascript">//<![CDATA[  <-- For SVG support
	if ('WebSocket' in window) {
		(function () {
			function refreshCSS() {
				var sheets = [].slice.call(document.getElementsByTagName("link"));
				var head = document.getElementsByTagName("head")[0];
				for (var i = 0; i < sheets.length; ++i) {
					var elem = sheets[i];
					var parent = elem.parentElement || head;
					parent.removeChild(elem);
					var rel = elem.rel;
					if (elem.href && typeof rel != "string" || rel.length == 0 || rel.toLowerCase() == "stylesheet") {
						var url = elem.href.replace(/(&|\?)_cacheOverride=\d+/, '');
						elem.href = url + (url.indexOf('?') >= 0 ? '&' : '?') + '_cacheOverride=' + (new Date().valueOf());
					}
					parent.appendChild(elem);
				}
			}
			var protocol = window.location.protocol === 'http:' ? 'ws://' : 'wss://';
			var address = protocol + window.location.host + window.location.pathname + '/ws';
			var socket = new WebSocket(address);
			socket.onmessage = function (msg) {
				if (msg.data == 'reload') window.location.reload();
				else if (msg.data == 'refreshcss') refreshCSS();
			};
			if (sessionStorage && !sessionStorage.getItem('IsThisFirstTime_Log_From_LiveServer')) {
				console.log('Live reload enabled.');
				sessionStorage.setItem('IsThisFirstTime_Log_From_LiveServer', true);
			}
		})();
	}
	else {
		console.error('Upgrade your browser. This Browser is NOT supported WebSocket for Live-Reloading.');
	}
	// 
	
	
	]]>
</script>
</svg>
