<?xml version="1.0" encoding="utf-8"?>
<!-- Generator: Adobe Illustrator 24.3.0, SVG Export Plug-In . SVG Version: 6.00 Build 0)  -->
<svg version="1.1" id="Layer_1" xmlns="http://www.w3.org/2000/svg" xmlns:xlink="http://www.w3.org/1999/xlink" x="0px" y="0px"
	 viewBox="0 0 91.8 91.8" style="enable-background:new 0 0 91.8 91.8;" xml:space="preserve">
<style type="text/css">
	.st0{opacity:0.4;fill:#010101;enable-background:new    ;}
	.st1{fill:#FFFFFF;}
</style>
<g>
	<circle class="st0" cx="45.9" cy="45.9" r="45.9"/>
</g>
<path class="st1" d="M58,28.7H33.8c-2.9,0-5.2,2.3-5.2,5.2V58c0,2.9,2.3,5.2,5.2,5.2H58c2.9,0,5.2-2.3,5.2-5.2V33.8
	C63.1,31,60.8,28.7,58,28.7z M42.5,32.1h6.9v5.4l-2.5-1.7c-0.6-0.4-1.3-0.4-1.9,0l-2.5,1.7V32.1z M59.7,58c0,1-0.8,1.7-1.7,1.7H33.8
	c-1,0-1.7-0.8-1.7-1.7V33.8c0-1,0.8-1.7,1.7-1.7H39v8.6c0,0.6,0.4,1.2,0.9,1.5c0.5,0.3,1.2,0.2,1.7-0.1l4.3-2.8l4.2,2.8
	c0.8,0.5,1.9,0.3,2.4-0.5c0.2-0.3,0.3-0.6,0.3-0.9v-8.6H58c1,0,1.7,0.8,1.7,1.7V58z"/>
</svg>
