<svg width="24" height="24" viewBox="0 0 24 24" fill="none" xmlns="http://www.w3.org/2000/svg">
<path d="M11.1887 20.2838H8.89832C8.24344 20.2838 9.00172 20.2838 8.17451 20.2838H7.69152H6.60914C6.16537 20.2838 5.79736 20.6518 5.79736 21.0956C5.79736 21.5393 6.16537 21.9073 6.60914 21.9073H17.3917C17.8355 21.9073 18.2035 21.5393 18.2035 21.0956C18.2035 20.6518 17.8355 20.2838 17.3917 20.2838H16.3094H15.6194C13.8616 20.2838 15.7415 20.2838 14.5509 20.2838H12.8122L12.8123 17.6162C12.5417 17.6487 12.2711 17.6595 12.0005 17.6595C11.7299 17.6595 11.4593 17.6487 11.1887 17.6162L11.1887 20.2838Z" fill="#292D32" stroke="#292D32"/>
<path fill-rule="evenodd" clip-rule="evenodd" d="M19.2161 12.8282C19.9511 12.5498 20.597 12.0932 21.1093 11.5809C22.145 10.4339 22.8243 9.06411 22.8243 7.46048C22.8243 5.85685 21.5659 4.59844 19.9623 4.59844H19.3386C18.6148 3.11731 17.1002 2.09277 15.3407 2.09277H8.6589C6.89936 2.09277 5.38482 3.11731 4.66096 4.59844H4.03732C2.4337 4.59844 1.17529 5.85685 1.17529 7.46048C1.17529 9.06411 1.85461 10.4339 2.89029 11.5809C3.40256 12.0932 4.04846 12.5498 4.78346 12.8282C5.94163 15.6791 8.72571 17.6836 11.9998 17.6836C15.2739 17.6836 18.0579 15.6791 19.2161 12.8282ZM4.89938 6.00252C3.90931 6.05302 2.61239 6.83942 2.99923 7.99994C3.35912 9.07963 4.28575 10.2403 4.83212 10.8263C4.89287 10.8915 4.99929 10.8476 4.99929 10.7585L4.99929 6.09994C4.99929 6.04471 4.95454 5.99971 4.89938 6.00252ZM20.9998 7.99994C21.3866 6.83942 20.0897 6.05302 19.0996 6.00252C19.0445 5.99971 18.9997 6.04471 18.9997 6.09994L18.9997 10.7585C18.9997 10.8476 19.1062 10.8915 19.1669 10.8263C19.7133 10.2403 20.6399 9.07963 20.9998 7.99994ZM8.74463 6.29265L15.2532 5.53642V4.32233L8.74463 5.09379V6.29265ZM10.3046 6.86603L8.74463 7.04971V14.6416H10.2634V9.63558L13.6763 14.6416H15.2532V6.29348L13.7408 6.4691V12.0441L10.3046 6.86603Z" fill="#292D32"/>
</svg>
