<svg width="42" height="39" viewBox="0 0 42 39" fill="none" xmlns="http://www.w3.org/2000/svg">
<path d="M33.21 3.1197L21.3048 1.70642C16.1336 1.09253 12.6848 3.8094 12.0709 8.98061L10.6593 20.8716C10.0438 26.057 12.7606 29.5058 17.9318 30.1197L29.8228 31.5313C34.994 32.1451 38.4428 29.4283 39.0567 24.2571L40.47 12.3519C41.0981 7.18239 38.3812 3.73358 33.21 3.1197ZM21.5464 8.04528C23.0097 8.21899 24.0756 9.5557 23.9002 11.0332C23.7248 12.5107 22.3898 13.5624 20.9123 13.387C19.4348 13.2116 18.3865 11.8481 18.5602 10.3849C18.7339 8.92158 20.0831 7.87158 21.5464 8.04528ZM24.3769 26.678C20.5553 26.2243 17.8134 22.7437 18.2671 18.9221C18.3851 17.9277 19.2927 17.1998 20.2872 17.3179L30.5159 18.5321C31.5104 18.6502 32.224 19.5561 32.1043 20.5648C31.6791 24.3897 28.1985 27.1316 24.3769 26.678ZM30.8603 14.5391C29.397 14.3654 28.3311 13.0287 28.5065 11.5512C28.6819 10.0737 30.0169 9.02202 31.4944 9.19742C32.9719 9.37281 34.0236 10.7078 33.8482 12.1853C33.6728 13.6628 32.3236 14.7128 30.8603 14.5391Z" fill="#26BBD9"/>
<path d="M33.21 3.1197L21.3048 1.70642C16.1336 1.09253 12.6848 3.8094 12.0709 8.98061L10.6593 20.8716C10.0438 26.057 12.7606 29.5058 17.9318 30.1197L29.8228 31.5313C34.994 32.1451 38.4428 29.4283 39.0567 24.2571L40.47 12.3519C41.0981 7.18239 38.3812 3.73358 33.21 3.1197ZM21.5464 8.04528C23.0097 8.21899 24.0756 9.5557 23.9002 11.0332C23.7248 12.5107 22.3898 13.5624 20.9123 13.387C19.4348 13.2116 18.3865 11.8481 18.5602 10.3849C18.7339 8.92158 20.0831 7.87158 21.5464 8.04528ZM24.3769 26.678C20.5553 26.2243 17.8134 22.7437 18.2671 18.9221C18.3851 17.9277 19.2927 17.1998 20.2872 17.3179L30.5159 18.5321C31.5104 18.6502 32.224 19.5561 32.1043 20.5648C31.6791 24.3897 28.1985 27.1316 24.3769 26.678ZM30.8603 14.5391C29.397 14.3654 28.3311 13.0287 28.5065 11.5512C28.6819 10.0737 30.0169 9.02202 31.4944 9.19742C32.9719 9.37281 34.0236 10.7078 33.8482 12.1853C33.6728 13.6628 32.3236 14.7128 30.8603 14.5391Z" fill="url(#paint0_linear_9745_9573)" fill-opacity="0.6" style="mix-blend-mode:overlay"/>
<path d="M10.0383 9.92188L6.44477 10.8848C1.41469 12.2326 -0.780512 16.0348 0.567294 21.0649L3.66651 32.6313C5.01802 37.6752 8.82022 39.8704 13.8503 38.5226L25.4167 35.4234C27.0382 34.9889 28.365 34.2994 29.3736 33.3959L17.7064 32.0109C14.7443 31.6593 12.2586 30.4613 10.6265 28.3868C8.99455 26.3125 8.41308 23.6126 8.7654 20.6448L10.0383 9.92188Z" fill="#26BBD9"/>
<path d="M10.0383 9.92188L6.44477 10.8848C1.41469 12.2326 -0.780512 16.0348 0.567294 21.0649L3.66651 32.6313C5.01802 37.6752 8.82022 39.8704 13.8503 38.5226L25.4167 35.4234C27.0382 34.9889 28.365 34.2994 29.3736 33.3959L17.7064 32.0109C14.7443 31.6593 12.2586 30.4613 10.6265 28.3868C8.99455 26.3125 8.41308 23.6126 8.7654 20.6448L10.0383 9.92188Z" fill="url(#paint1_linear_9745_9573)" fill-opacity="0.6" style="mix-blend-mode:overlay"/>
<defs>
<linearGradient id="paint0_linear_9745_9573" x1="23.7402" y1="31.9805" x2="27.2113" y2="2.74131" gradientUnits="userSpaceOnUse">
<stop/>
<stop offset="1" stop-opacity="0"/>
</linearGradient>
<linearGradient id="paint1_linear_9745_9573" x1="14.7757" y1="9.92188" x2="14.7757" y2="38.912" gradientUnits="userSpaceOnUse">
<stop stop-opacity="0"/>
<stop offset="1"/>
</linearGradient>
</defs>
</svg>
