<svg width="21" height="18" viewBox="0 0 21 18" fill="none" xmlns="http://www.w3.org/2000/svg">
<path d="M1.5 4H4.5" stroke="#9BA5BD" stroke-width="1.6" stroke-linecap="round" stroke-linejoin="round"/>
<path d="M1.5 14H7.5" stroke="#9BA5BD" stroke-width="1.6" stroke-linecap="round" stroke-linejoin="round"/>
<path d="M16.5 14L19.5 14" stroke="#9BA5BD" stroke-width="1.6" stroke-linecap="round" stroke-linejoin="round"/>
<path d="M13.5 4L19.5 4" stroke="#9BA5BD" stroke-width="1.6" stroke-linecap="round" stroke-linejoin="round"/>
<path d="M4.5 4C4.5 3.06812 4.5 2.60218 4.65224 2.23463C4.85523 1.74458 5.24458 1.35523 5.73463 1.15224C6.10218 1 6.56812 1 7.5 1C8.43188 1 8.89782 1 9.26537 1.15224C9.75542 1.35523 10.1448 1.74458 10.3478 2.23463C10.5 2.60218 10.5 3.06812 10.5 4C10.5 4.93188 10.5 5.39782 10.3478 5.76537C10.1448 6.25542 9.75542 6.64477 9.26537 6.84776C8.89782 7 8.43188 7 7.5 7C6.56812 7 6.10218 7 5.73463 6.84776C5.24458 6.64477 4.85523 6.25542 4.65224 5.76537C4.5 5.39782 4.5 4.93188 4.5 4Z" stroke="#9BA5BD" stroke-width="1.6"/>
<path d="M10.5 14C10.5 13.0681 10.5 12.6022 10.6522 12.2346C10.8552 11.7446 11.2446 11.3552 11.7346 11.1522C12.1022 11 12.5681 11 13.5 11C14.4319 11 14.8978 11 15.2654 11.1522C15.7554 11.3552 16.1448 11.7446 16.3478 12.2346C16.5 12.6022 16.5 13.0681 16.5 14C16.5 14.9319 16.5 15.3978 16.3478 15.7654C16.1448 16.2554 15.7554 16.6448 15.2654 16.8478C14.8978 17 14.4319 17 13.5 17C12.5681 17 12.1022 17 11.7346 16.8478C11.2446 16.6448 10.8552 16.2554 10.6522 15.7654C10.5 15.3978 10.5 14.9319 10.5 14Z" stroke="#9BA5BD" stroke-width="1.6"/>
</svg>
