<svg width="29" height="29" viewBox="0 0 29 29" fill="none" xmlns="http://www.w3.org/2000/svg">
<path d="M25.7901 17.613C24.5651 16.388 23.5968 16.7847 22.7568 17.613L17.9151 22.4547C17.7284 22.6413 17.5534 23.003 17.5068 23.2597L17.2384 25.1147C17.1451 25.7797 17.6118 26.258 18.2768 26.153L20.1318 25.8847C20.3884 25.8497 20.7501 25.663 20.9368 25.4763L25.7784 20.6347C26.6301 19.8063 27.0151 18.838 25.7901 17.613Z" fill="#26BBD9"/>
<path d="M25.7901 17.613C24.5651 16.388 23.5968 16.7847 22.7568 17.613L17.9151 22.4547C17.7284 22.6413 17.5534 23.003 17.5068 23.2597L17.2384 25.1147C17.1451 25.7797 17.6118 26.258 18.2768 26.153L20.1318 25.8847C20.3884 25.8497 20.7501 25.663 20.9368 25.4763L25.7784 20.6347C26.6301 19.8063 27.0151 18.838 25.7901 17.613Z" fill="url(#paint0_linear_9745_15349)" fill-opacity="0.6" style="mix-blend-mode:overlay"/>
<path d="M8.94202 2.88857C9.49314 2.82782 9.94662 3.28315 9.94662 3.8376V8.5987C9.94662 9.15098 9.4989 9.5987 8.94662 9.5987H4.23828C3.686 9.5987 3.2316 9.14866 3.28819 8.59928C3.62658 5.31398 5.67006 3.24926 8.94202 2.88857Z" fill="#26BBD9"/>
<path d="M8.94202 2.88857C9.49314 2.82782 9.94662 3.28315 9.94662 3.8376V8.5987C9.94662 9.15098 9.4989 9.5987 8.94662 9.5987H4.23828C3.686 9.5987 3.2316 9.14866 3.28819 8.59928C3.62658 5.31398 5.67006 3.24926 8.94202 2.88857Z" fill="url(#paint1_linear_9745_15349)" fill-opacity="0.6" style="mix-blend-mode:overlay"/>
<path d="M25.3233 9.5987H20.8633C20.311 9.5987 19.8633 9.15098 19.8633 8.5987V3.83828C19.8633 3.28356 20.3163 2.82809 20.8676 2.88925C24.0364 3.24074 26.0559 5.1899 26.4899 8.29203C26.5833 8.98036 26.0233 9.5987 25.3233 9.5987Z" fill="#26BBD9"/>
<path d="M25.3233 9.5987H20.8633C20.311 9.5987 19.8633 9.15098 19.8633 8.5987V3.83828C19.8633 3.28356 20.3163 2.82809 20.8676 2.88925C24.0364 3.24074 26.0559 5.1899 26.4899 8.29203C26.5833 8.98036 26.0233 9.5987 25.3233 9.5987Z" fill="url(#paint2_linear_9745_15349)" fill-opacity="0.6" style="mix-blend-mode:overlay"/>
<path d="M8.94661 19.5156C9.4989 19.5156 9.94662 19.9633 9.94662 20.5156V24.9056C9.94662 25.6056 9.32828 26.1656 8.62828 26.0723C5.57555 25.6181 3.67049 23.6336 3.30275 20.526C3.23727 19.9726 3.69379 19.5156 4.25102 19.5156H8.94661Z" fill="#26BBD9"/>
<path d="M8.94661 19.5156C9.4989 19.5156 9.94662 19.9633 9.94662 20.5156V24.9056C9.94662 25.6056 9.32828 26.1656 8.62828 26.0723C5.57555 25.6181 3.67049 23.6336 3.30275 20.526C3.23727 19.9726 3.69379 19.5156 4.25102 19.5156H8.94661Z" fill="url(#paint3_linear_9745_15349)" fill-opacity="0.6" style="mix-blend-mode:overlay"/>
<path d="M9.94662 12.3516C9.94662 11.7993 9.4989 11.3516 8.94662 11.3516H4.23828C3.686 11.3516 3.23828 11.7993 3.23828 12.3516V16.7682C3.23828 17.3205 3.686 17.7682 4.23828 17.7682H8.94661C9.4989 17.7682 9.94662 17.3205 9.94662 16.7682V12.3516Z" fill="#26BBD9"/>
<path d="M9.94662 12.3516C9.94662 11.7993 9.4989 11.3516 8.94662 11.3516H4.23828C3.686 11.3516 3.23828 11.7993 3.23828 12.3516V16.7682C3.23828 17.3205 3.686 17.7682 4.23828 17.7682H8.94661C9.4989 17.7682 9.94662 17.3205 9.94662 16.7682V12.3516Z" fill="url(#paint4_linear_9745_15349)" fill-opacity="0.6" style="mix-blend-mode:overlay"/>
<path d="M18.113 12.3516C18.113 11.7993 17.6652 11.3516 17.113 11.3516H12.6963C12.144 11.3516 11.6963 11.7993 11.6963 12.3516V16.7682C11.6963 17.3205 12.144 17.7682 12.6963 17.7682H16.9463C17.588 17.7682 18.113 17.2432 18.113 16.6016V12.3516Z" fill="#26BBD9"/>
<path d="M18.113 12.3516C18.113 11.7993 17.6652 11.3516 17.113 11.3516H12.6963C12.144 11.3516 11.6963 11.7993 11.6963 12.3516V16.7682C11.6963 17.3205 12.144 17.7682 12.6963 17.7682H16.9463C17.588 17.7682 18.113 17.2432 18.113 16.6016V12.3516Z" fill="url(#paint5_linear_9745_15349)" fill-opacity="0.6" style="mix-blend-mode:overlay"/>
<path d="M18.113 3.83203C18.113 3.27975 17.6652 2.83203 17.113 2.83203H12.6963C12.144 2.83203 11.6963 3.27975 11.6963 3.83203V8.5987C11.6963 9.15098 12.144 9.5987 12.6963 9.5987H17.113C17.6652 9.5987 18.113 9.15098 18.113 8.5987V3.83203Z" fill="#26BBD9"/>
<path d="M18.113 3.83203C18.113 3.27975 17.6652 2.83203 17.113 2.83203H12.6963C12.144 2.83203 11.6963 3.27975 11.6963 3.83203V8.5987C11.6963 9.15098 12.144 9.5987 12.6963 9.5987H17.113C17.6652 9.5987 18.113 9.15098 18.113 8.5987V3.83203Z" fill="url(#paint6_linear_9745_15349)" fill-opacity="0.6" style="mix-blend-mode:overlay"/>
<defs>
<linearGradient id="paint0_linear_9745_15349" x1="21.8983" y1="16.8359" x2="21.8983" y2="26.1675" gradientUnits="userSpaceOnUse">
<stop stop-opacity="0"/>
<stop offset="1"/>
</linearGradient>
<linearGradient id="paint1_linear_9745_15349" x1="6.59245" y1="2.83203" x2="6.59245" y2="9.5987" gradientUnits="userSpaceOnUse">
<stop stop-opacity="0"/>
<stop offset="1"/>
</linearGradient>
<linearGradient id="paint2_linear_9745_15349" x1="23.1817" y1="2.83203" x2="23.1817" y2="9.5987" gradientUnits="userSpaceOnUse">
<stop stop-opacity="0"/>
<stop offset="1"/>
</linearGradient>
<linearGradient id="paint3_linear_9745_15349" x1="6.59245" y1="19.5156" x2="6.59245" y2="26.0825" gradientUnits="userSpaceOnUse">
<stop stop-opacity="0"/>
<stop offset="1"/>
</linearGradient>
<linearGradient id="paint4_linear_9745_15349" x1="6.59245" y1="11.3516" x2="6.59245" y2="17.7682" gradientUnits="userSpaceOnUse">
<stop stop-opacity="0"/>
<stop offset="1"/>
</linearGradient>
<linearGradient id="paint5_linear_9745_15349" x1="14.9046" y1="11.3516" x2="14.9046" y2="17.7682" gradientUnits="userSpaceOnUse">
<stop stop-opacity="0"/>
<stop offset="1"/>
</linearGradient>
<linearGradient id="paint6_linear_9745_15349" x1="14.9046" y1="2.83203" x2="14.9046" y2="9.5987" gradientUnits="userSpaceOnUse">
<stop stop-opacity="0"/>
<stop offset="1"/>
</linearGradient>
</defs>
</svg>
