<svg width="31" height="31" viewBox="0 0 31 31" fill="none" xmlns="http://www.w3.org/2000/svg">
<path fill-rule="evenodd" clip-rule="evenodd" d="M19.6451 15.4453H24.5326C27.1201 15.4453 28.3701 16.6953 28.3076 19.2203V24.1078C28.3701 26.6953 27.1201 27.9453 24.5451 27.8828H19.6451C17.1201 27.9453 15.8701 26.6953 15.8701 24.1203V19.2203C15.8701 16.6953 17.1201 15.4453 19.6451 15.4453ZM23.5109 23.4085L23.8527 24.3069C23.8983 24.4176 23.952 24.5462 24.0139 24.6927C24.079 24.8359 24.1392 24.9433 24.1945 25.0149C24.2499 25.0833 24.3182 25.137 24.3996 25.1761C24.481 25.2184 24.5787 25.2396 24.6926 25.2396C24.8879 25.2396 25.0539 25.1712 25.1906 25.0345C25.3306 24.8945 25.4006 24.7415 25.4006 24.5755C25.4006 24.416 25.3273 24.1604 25.1809 23.8089L23.3107 19.1897C23.2229 18.9586 23.1496 18.7747 23.091 18.638C23.0357 18.498 22.9657 18.3678 22.8811 18.2474C22.7997 18.1269 22.6906 18.0293 22.5539 17.9544C22.4204 17.8763 22.2528 17.8372 22.051 17.8372C21.8524 17.8372 21.6848 17.8763 21.5481 17.9544C21.4146 18.0293 21.3055 18.1285 21.2209 18.2522C21.1395 18.3759 21.0614 18.5322 20.9865 18.721C20.9149 18.9065 20.8531 19.066 20.801 19.1995L18.9699 23.8479C18.8951 24.0335 18.8413 24.1784 18.8088 24.2825C18.7762 24.3867 18.76 24.4876 18.76 24.5853C18.76 24.7545 18.83 24.9059 18.9699 25.0394C19.1099 25.1728 19.271 25.2396 19.4533 25.2396C19.6682 25.2396 19.8228 25.1777 19.9172 25.054C20.0116 24.9271 20.1255 24.6845 20.259 24.3265L20.6008 23.4085H23.5109ZM22.0412 19.3655L23.1203 22.3196H20.9816L22.0412 19.3655Z" fill="#26BBD9"/>
<path fill-rule="evenodd" clip-rule="evenodd" d="M19.6451 15.4453H24.5326C27.1201 15.4453 28.3701 16.6953 28.3076 19.2203V24.1078C28.3701 26.6953 27.1201 27.9453 24.5451 27.8828H19.6451C17.1201 27.9453 15.8701 26.6953 15.8701 24.1203V19.2203C15.8701 16.6953 17.1201 15.4453 19.6451 15.4453ZM23.5109 23.4085L23.8527 24.3069C23.8983 24.4176 23.952 24.5462 24.0139 24.6927C24.079 24.8359 24.1392 24.9433 24.1945 25.0149C24.2499 25.0833 24.3182 25.137 24.3996 25.1761C24.481 25.2184 24.5787 25.2396 24.6926 25.2396C24.8879 25.2396 25.0539 25.1712 25.1906 25.0345C25.3306 24.8945 25.4006 24.7415 25.4006 24.5755C25.4006 24.416 25.3273 24.1604 25.1809 23.8089L23.3107 19.1897C23.2229 18.9586 23.1496 18.7747 23.091 18.638C23.0357 18.498 22.9657 18.3678 22.8811 18.2474C22.7997 18.1269 22.6906 18.0293 22.5539 17.9544C22.4204 17.8763 22.2528 17.8372 22.051 17.8372C21.8524 17.8372 21.6848 17.8763 21.5481 17.9544C21.4146 18.0293 21.3055 18.1285 21.2209 18.2522C21.1395 18.3759 21.0614 18.5322 20.9865 18.721C20.9149 18.9065 20.8531 19.066 20.801 19.1995L18.9699 23.8479C18.8951 24.0335 18.8413 24.1784 18.8088 24.2825C18.7762 24.3867 18.76 24.4876 18.76 24.5853C18.76 24.7545 18.83 24.9059 18.9699 25.0394C19.1099 25.1728 19.271 25.2396 19.4533 25.2396C19.6682 25.2396 19.8228 25.1777 19.9172 25.054C20.0116 24.9271 20.1255 24.6845 20.259 24.3265L20.6008 23.4085H23.5109ZM22.0412 19.3655L23.1203 22.3196H20.9816L22.0412 19.3655Z" fill="url(#paint0_linear_9745_10859)" fill-opacity="0.6" style="mix-blend-mode:overlay"/>
<path fill-rule="evenodd" clip-rule="evenodd" d="M7.20664 3H12.0941C14.6816 3 15.9316 4.25 15.8691 6.775V11.6625C15.9316 14.25 14.6816 15.5 12.1066 15.4375H7.20664C4.68164 15.5 3.43164 14.25 3.43164 11.675V6.775C3.43164 4.25 4.68164 3 7.20664 3ZM8.27522 9.87985H8.78304C9.0402 9.87985 9.25341 9.91403 9.42268 9.98239C9.59195 10.0507 9.75797 10.1777 9.92073 10.3632C10.0867 10.5488 10.2739 10.819 10.4823 11.1738L11.0633 12.1406C11.2 12.3685 11.3074 12.541 11.3856 12.6582C11.467 12.7754 11.563 12.8714 11.6737 12.9463C11.7843 13.0244 11.9211 13.0634 12.0838 13.0634C12.2205 13.0634 12.341 13.0358 12.4451 12.9804C12.5493 12.9284 12.6307 12.8567 12.6893 12.7656C12.7511 12.6712 12.7821 12.5768 12.7821 12.4824C12.7821 12.3912 12.73 12.2252 12.6258 11.9843C12.5249 11.7402 12.3817 11.4684 12.1961 11.1689C12.0138 10.8662 11.8055 10.5813 11.5711 10.3144C11.3367 10.0475 11.091 9.84567 10.8338 9.70895C11.4458 9.57549 11.9015 9.34925 12.201 9.03024C12.5037 8.71123 12.6551 8.2848 12.6551 7.75094C12.6551 7.49053 12.6095 7.24476 12.5184 7.01364C12.4305 6.77926 12.3003 6.57419 12.1278 6.3984C11.9552 6.22262 11.7567 6.08753 11.5321 5.99313C11.3465 5.90849 11.1382 5.85316 10.9071 5.82711C10.6759 5.79782 10.3976 5.78317 10.0721 5.78317H7.7137C7.4012 5.78317 7.17496 5.85316 7.03499 5.99313C6.89501 6.1331 6.82503 6.35934 6.82503 6.67184V12.1797C6.82503 12.4694 6.8885 12.6891 7.01546 12.8388C7.14241 12.9886 7.32145 13.0634 7.55257 13.0634C7.76741 13.0634 7.94156 12.9918 8.07503 12.8486C8.20849 12.7054 8.27522 12.4824 8.27522 12.1797V9.87985ZM8.27522 6.87204H9.61311C10.1112 6.87204 10.4448 6.90784 10.6141 6.97946C10.7931 7.05433 10.9331 7.16826 11.034 7.32126C11.1349 7.47099 11.1854 7.64515 11.1854 7.84372C11.1854 8.09762 11.1219 8.29782 10.9949 8.4443C10.8713 8.58753 10.6906 8.69007 10.453 8.75192C10.2153 8.81051 9.92236 8.83981 9.57405 8.83981H8.27522V6.87204Z" fill="#26BBD9"/>
<path fill-rule="evenodd" clip-rule="evenodd" d="M7.20664 3H12.0941C14.6816 3 15.9316 4.25 15.8691 6.775V11.6625C15.9316 14.25 14.6816 15.5 12.1066 15.4375H7.20664C4.68164 15.5 3.43164 14.25 3.43164 11.675V6.775C3.43164 4.25 4.68164 3 7.20664 3ZM8.27522 9.87985H8.78304C9.0402 9.87985 9.25341 9.91403 9.42268 9.98239C9.59195 10.0507 9.75797 10.1777 9.92073 10.3632C10.0867 10.5488 10.2739 10.819 10.4823 11.1738L11.0633 12.1406C11.2 12.3685 11.3074 12.541 11.3856 12.6582C11.467 12.7754 11.563 12.8714 11.6737 12.9463C11.7843 13.0244 11.9211 13.0634 12.0838 13.0634C12.2205 13.0634 12.341 13.0358 12.4451 12.9804C12.5493 12.9284 12.6307 12.8567 12.6893 12.7656C12.7511 12.6712 12.7821 12.5768 12.7821 12.4824C12.7821 12.3912 12.73 12.2252 12.6258 11.9843C12.5249 11.7402 12.3817 11.4684 12.1961 11.1689C12.0138 10.8662 11.8055 10.5813 11.5711 10.3144C11.3367 10.0475 11.091 9.84567 10.8338 9.70895C11.4458 9.57549 11.9015 9.34925 12.201 9.03024C12.5037 8.71123 12.6551 8.2848 12.6551 7.75094C12.6551 7.49053 12.6095 7.24476 12.5184 7.01364C12.4305 6.77926 12.3003 6.57419 12.1278 6.3984C11.9552 6.22262 11.7567 6.08753 11.5321 5.99313C11.3465 5.90849 11.1382 5.85316 10.9071 5.82711C10.6759 5.79782 10.3976 5.78317 10.0721 5.78317H7.7137C7.4012 5.78317 7.17496 5.85316 7.03499 5.99313C6.89501 6.1331 6.82503 6.35934 6.82503 6.67184V12.1797C6.82503 12.4694 6.8885 12.6891 7.01546 12.8388C7.14241 12.9886 7.32145 13.0634 7.55257 13.0634C7.76741 13.0634 7.94156 12.9918 8.07503 12.8486C8.20849 12.7054 8.27522 12.4824 8.27522 12.1797V9.87985ZM8.27522 6.87204H9.61311C10.1112 6.87204 10.4448 6.90784 10.6141 6.97946C10.7931 7.05433 10.9331 7.16826 11.034 7.32126C11.1349 7.47099 11.1854 7.64515 11.1854 7.84372C11.1854 8.09762 11.1219 8.29782 10.9949 8.4443C10.8713 8.58753 10.6906 8.69007 10.453 8.75192C10.2153 8.81051 9.92236 8.83981 9.57405 8.83981H8.27522V6.87204Z" fill="url(#paint1_linear_9745_10859)" fill-opacity="0.6" style="mix-blend-mode:overlay"/>
<path d="M12.1924 28.9375C6.85488 28.9375 2.50488 24.5875 2.50488 19.25C2.50488 18.7375 2.92988 18.3125 3.44238 18.3125C3.95488 18.3125 4.37988 18.7375 4.37988 19.25C4.37988 22.95 6.95488 26.05 10.4174 26.8625L10.0799 26.3C9.81738 25.85 9.95488 25.275 10.4049 25.0125C10.8424 24.75 11.4299 24.8875 11.6924 25.3375L13.0049 27.525C13.1799 27.8125 13.1799 28.175 13.0174 28.4625C12.8424 28.75 12.5299 28.9375 12.1924 28.9375Z" fill="#26BBD9"/>
<path d="M12.1924 28.9375C6.85488 28.9375 2.50488 24.5875 2.50488 19.25C2.50488 18.7375 2.92988 18.3125 3.44238 18.3125C3.95488 18.3125 4.37988 18.7375 4.37988 19.25C4.37988 22.95 6.95488 26.05 10.4174 26.8625L10.0799 26.3C9.81738 25.85 9.95488 25.275 10.4049 25.0125C10.8424 24.75 11.4299 24.8875 11.6924 25.3375L13.0049 27.525C13.1799 27.8125 13.1799 28.175 13.0174 28.4625C12.8424 28.75 12.5299 28.9375 12.1924 28.9375Z" fill="url(#paint2_linear_9745_10859)" fill-opacity="0.6" style="mix-blend-mode:overlay"/>
<path d="M28.4434 12.6875C27.9309 12.6875 27.5059 12.2625 27.5059 11.75C27.5059 8.05 24.9309 4.95 21.4684 4.1375L21.8059 4.7C22.0684 5.15 21.9309 5.725 21.4809 5.9875C21.0434 6.25 20.4559 6.1125 20.1934 5.6625L18.8809 3.475C18.7059 3.1875 18.7059 2.825 18.8684 2.5375C19.0434 2.25 19.3559 2.0625 19.6934 2.0625C25.0309 2.0625 29.3809 6.4125 29.3809 11.75C29.3809 12.2625 28.9559 12.6875 28.4434 12.6875Z" fill="#26BBD9"/>
<path d="M28.4434 12.6875C27.9309 12.6875 27.5059 12.2625 27.5059 11.75C27.5059 8.05 24.9309 4.95 21.4684 4.1375L21.8059 4.7C22.0684 5.15 21.9309 5.725 21.4809 5.9875C21.0434 6.25 20.4559 6.1125 20.1934 5.6625L18.8809 3.475C18.7059 3.1875 18.7059 2.825 18.8684 2.5375C19.0434 2.25 19.3559 2.0625 19.6934 2.0625C25.0309 2.0625 29.3809 6.4125 29.3809 11.75C29.3809 12.2625 28.9559 12.6875 28.4434 12.6875Z" fill="url(#paint3_linear_9745_10859)" fill-opacity="0.6" style="mix-blend-mode:overlay"/>
<defs>
<linearGradient id="paint0_linear_9745_10859" x1="22.09" y1="15.4453" x2="22.09" y2="27.885" gradientUnits="userSpaceOnUse">
<stop stop-opacity="0"/>
<stop offset="1"/>
</linearGradient>
<linearGradient id="paint1_linear_9745_10859" x1="9.65151" y1="3" x2="9.65151" y2="15.4397" gradientUnits="userSpaceOnUse">
<stop stop-opacity="0"/>
<stop offset="1"/>
</linearGradient>
<linearGradient id="paint2_linear_9745_10859" x1="7.82131" y1="18.3125" x2="7.82131" y2="28.9375" gradientUnits="userSpaceOnUse">
<stop stop-opacity="0"/>
<stop offset="1"/>
</linearGradient>
<linearGradient id="paint3_linear_9745_10859" x1="24.0645" y1="2.0625" x2="24.0645" y2="12.6875" gradientUnits="userSpaceOnUse">
<stop stop-opacity="0"/>
<stop offset="1"/>
</linearGradient>
</defs>
</svg>
