<svg width="27" height="27" viewBox="0 0 27 27" fill="none" xmlns="http://www.w3.org/2000/svg">
<path fill-rule="evenodd" clip-rule="evenodd" d="M21.5132 0.5H15.2995C12.1926 0.5 10.6392 2.05343 10.6392 5.1603V11.374C10.6392 14.4809 12.1926 16.0343 15.2995 16.0343H25.3968C25.824 16.0343 26.1735 15.6848 26.1735 15.2576V5.1603C26.1735 2.05343 24.62 0.5 21.5132 0.5ZM20.853 6.7966C21.1109 6.53874 21.1109 6.12066 20.853 5.8628C20.5952 5.60494 20.1771 5.60494 19.9192 5.8628L18.4465 7.33551L16.9738 5.8628C16.716 5.60494 16.2979 5.60494 16.04 5.8628C15.7822 6.12066 15.7822 6.53874 16.04 6.7966L17.5127 8.26931L16.04 9.74204C15.7821 9.9999 15.7821 10.418 16.04 10.6758C16.2979 10.9337 16.7159 10.9337 16.9738 10.6758L18.4465 9.20311L19.9193 10.6758C20.1771 10.9337 20.5952 10.9337 20.8531 10.6758C21.1109 10.418 21.1109 9.9999 20.8531 9.74204L19.3803 8.26931L20.853 6.7966Z" fill="#26BBD9"/>
<path fill-rule="evenodd" clip-rule="evenodd" d="M21.5132 0.5H15.2995C12.1926 0.5 10.6392 2.05343 10.6392 5.1603V11.374C10.6392 14.4809 12.1926 16.0343 15.2995 16.0343H25.3968C25.824 16.0343 26.1735 15.6848 26.1735 15.2576V5.1603C26.1735 2.05343 24.62 0.5 21.5132 0.5ZM20.853 6.7966C21.1109 6.53874 21.1109 6.12066 20.853 5.8628C20.5952 5.60494 20.1771 5.60494 19.9192 5.8628L18.4465 7.33551L16.9738 5.8628C16.716 5.60494 16.2979 5.60494 16.04 5.8628C15.7822 6.12066 15.7822 6.53874 16.04 6.7966L17.5127 8.26931L16.04 9.74204C15.7821 9.9999 15.7821 10.418 16.04 10.6758C16.2979 10.9337 16.7159 10.9337 16.9738 10.6758L18.4465 9.20311L19.9193 10.6758C20.1771 10.9337 20.5952 10.9337 20.8531 10.6758C21.1109 10.418 21.1109 9.9999 20.8531 9.74204L19.3803 8.26931L20.853 6.7966Z" fill="url(#paint0_linear_9745_7707)" fill-opacity="0.6" style="mix-blend-mode:overlay"/>
<path fill-rule="evenodd" clip-rule="evenodd" d="M4.83461 10.9648H11.0483C14.1552 10.9648 15.7086 12.5183 15.7086 15.6251V21.8389C15.7086 24.9457 14.1552 26.4992 11.0483 26.4992H0.951032C0.523838 26.4992 0.174316 26.1496 0.174316 25.7224V15.6251C0.174316 12.5183 1.72775 10.9648 4.83461 10.9648ZM6.72308 21.0978L4.935 19.3097C4.68117 19.0559 4.68117 18.6444 4.935 18.3905C5.18884 18.1367 5.60038 18.1367 5.85421 18.3905L7.18269 19.719L10.5417 16.36C10.7955 16.1062 11.2071 16.1062 11.4609 16.36C11.7148 16.6138 11.7148 17.0254 11.4609 17.2792L7.64229 21.0978C7.38846 21.3517 6.97691 21.3517 6.72308 21.0978Z" fill="#26BBD9"/>
<path fill-rule="evenodd" clip-rule="evenodd" d="M4.83461 10.9648H11.0483C14.1552 10.9648 15.7086 12.5183 15.7086 15.6251V21.8389C15.7086 24.9457 14.1552 26.4992 11.0483 26.4992H0.951032C0.523838 26.4992 0.174316 26.1496 0.174316 25.7224V15.6251C0.174316 12.5183 1.72775 10.9648 4.83461 10.9648ZM6.72308 21.0978L4.935 19.3097C4.68117 19.0559 4.68117 18.6444 4.935 18.3905C5.18884 18.1367 5.60038 18.1367 5.85421 18.3905L7.18269 19.719L10.5417 16.36C10.7955 16.1062 11.2071 16.1062 11.4609 16.36C11.7148 16.6138 11.7148 17.0254 11.4609 17.2792L7.64229 21.0978C7.38846 21.3517 6.97691 21.3517 6.72308 21.0978Z" fill="url(#paint1_linear_9745_7707)" fill-opacity="0.6" style="mix-blend-mode:overlay"/>
<defs>
<linearGradient id="paint0_linear_9745_7707" x1="18.4063" y1="0.5" x2="18.4063" y2="16.0343" gradientUnits="userSpaceOnUse">
<stop stop-opacity="0"/>
<stop offset="1"/>
</linearGradient>
<linearGradient id="paint1_linear_9745_7707" x1="7.94147" y1="10.9648" x2="7.94147" y2="26.4992" gradientUnits="userSpaceOnUse">
<stop stop-opacity="0"/>
<stop offset="1"/>
</linearGradient>
</defs>
</svg>
